<svg xmlns="http://www.w3.org/2000/svg" xmlns:xlink="http://www.w3.org/1999/xlink" width="340" height="349" viewBox="0 0 340 349"><defs><path id="jciaa" d="M1277.5 2226.5c142.49 0 258 115.51 258 258s-115.51 258-258 258-258-115.51-258-258 115.51-258 258-258z"/><path id="jciab" d="M1277.5 2355.5c71.24 0 129 57.75 129 129 0 71.24-57.76 129-129 129-71.25 0-129-57.76-129-129 0-71.25 57.75-129 129-129z"/><path id="jciac" d="M1277.5 2420a64.5 64.5 0 1 1 0 129 64.5 64.5 0 0 1 0-129z"/><path id="jciad" d="M1277.5 2450a34.5 34.5 0 1 1 0 69 34.5 34.5 0 0 1 0-69zm-23 34.5a23 23 0 1 0 46 0 23 23 0 0 0-46 0zm23-11.8a11.8 11.8 0 1 1 0 23.6 11.8 11.8 0 0 1 0-23.6z"/></defs><g><g clip-path="url(#clip-1301)" opacity=".09" transform="translate(-1196 -2394)"><use fill="#fff" xlink:href="#jciaa"/></g><g clip-path="url(#clip-1301)" opacity=".09" transform="translate(-1196 -2394)"><use fill="#fff" xlink:href="#jciab"/></g><g clip-path="url(#clip-1301)" opacity=".09" transform="translate(-1196 -2394)"><use fill="#fff" xlink:href="#jciac"/></g><g transform="translate(-1196 -2394)"><use fill="#fff" xlink:href="#jciad"/></g></g></svg>