<svg xmlns="http://www.w3.org/2000/svg" viewBox="0 0 22 18" width="22" height="18">
	<style>
		tspan { white-space:pre }
		.shp0 { fill: #00b5eb;stroke: #00b5eb;paint-order:stroke fill markers;stroke-width: 4 } 
	</style>
	<path id="Rounded Rectangle 3 copy 20" class="shp0" d="M3.85,6.18l-1.4,1.68c-0.39,0.46 -0.33,1.15 0.14,1.54l6.72,5.62c0.46,0.39 1.16,0.33 1.54,-0.14l1.4,-1.68c0.39,-0.46 0.33,-1.16 -0.14,-1.54l-6.72,-5.62c-0.46,-0.39 -1.15,-0.33 -1.54,0.14zM16.19,2.93l-8.07,9.67c-0.39,0.46 -0.33,1.15 0.14,1.54l1.68,1.4c0.46,0.39 1.15,0.33 1.54,-0.14l8.07,-9.67c0.39,-0.46 0.33,-1.15 -0.14,-1.54l-1.68,-1.4c-0.46,-0.39 -1.15,-0.33 -1.54,0.14z" />
</svg>