<svg xmlns="http://www.w3.org/2000/svg" xmlns:xlink="http://www.w3.org/1999/xlink" width="372" height="70" viewBox="0 0 372 70"><defs><path id="6rg4a" d="M73.33 52.77c-5.77 0-9.27 3.33-9.27 6.11 0 4.9 4.03 10.44 8.37 14.98a93.54 93.54 0 0 0 10.14 8.92c.22.17.35.25.35.25S52 69.05 52 48.66c0-11.29 8.04-18.58 8.04-18.58s-3.71 6.75-3.71 12.7c0 3.71.81 7.35 2.15 10.84 1.18-2.46 4.86-4.03 12.38-4.03a17.7 17.7 0 0 1 12.36 4.96s-1.78-1.78-9.9-1.78zm-7.26-6.58a4.8 4.8 0 1 1 0-9.6 4.8 4.8 0 0 1 0 9.6z"/><path id="6rg4c" d="M105.28 56.1c0-3-2.44-8.37-11.54-8.37-8.96 0-14.23 3.1-14.23 3.1s7.6-7.43 23.2-7.43c7 0 10.83 4.37 11.74 4.95C122.2 37.16 111.67 18 111.67 18s10.51 9.14 10.51 21.37c0 34.28-39.88 48.62-39.88 48.62s22.98-16.66 22.98-31.9zm-1.03-16.42a6.5 6.5 0 1 1 0-12.99 6.5 6.5 0 0 1 0 12.99z"/><path id="6rg4e" d="M139.2 61.77h-3.53l7.01-16.43h3.23l7.01 16.43h-3.58l-1.61-3.78h-6.92zm5.07-12.23l-2.4 5.67h4.78zM166.4 60.9a8.87 8.87 0 0 1-4.65 1.2c-2.54 0-4.65-.8-6.34-2.39a8.12 8.12 0 0 1-2.52-6.11c0-2.5.83-4.53 2.5-6.12a8.91 8.91 0 0 1 6.36-2.38c1.59 0 3.03.35 4.32 1.03v3.38a7.59 7.59 0 0 0-4.3-1.26c-1.54 0-2.84.5-3.9 1.52a5.1 5.1 0 0 0-1.55 3.83 5.1 5.1 0 0 0 1.6 3.85c1.04 1 2.37 1.5 4 1.5 1.78 0 3.28-.48 4.48-1.43zm5.24.87h-2.83V45.43h3.37v10.64l7.92-10.64h2.9v16.34h-3.34V51.05zm24.53-1.14c-1.24.97-2.93 1.47-5.08 1.47-2.37 0-4.34-.51-5.91-1.52V57.3c.71.5 1.57.9 2.57 1.2 1 .3 1.95.46 2.87.46 1.25 0 2.22-.21 2.92-.63.69-.42 1.04-1 1.04-1.75 0-.66-.31-1.16-.93-1.51a5.22 5.22 0 0 0-2.56-.53h-2.06v-2.82h2.46c1.76 0 2.64-.6 2.64-1.8 0-.54-.27-.96-.82-1.27-.54-.3-1.3-.45-2.24-.45-1.89 0-3.63.4-5.24 1.21v-3.1a11.29 11.29 0 0 1 5.4-1.22c1.9 0 3.4.43 4.51 1.29a4.01 4.01 0 0 1 1.71 3.36c0 .78-.21 1.45-.64 2.02-.43.56-.96.98-1.58 1.25.84.3 1.52.8 2.03 1.48.52.67.78 1.49.78 2.44a4.6 4.6 0 0 1-1.87 3.69z"/><path id="6rg4f" d="M247.64 52.81h-5.34v-1.4h5.34zm-4.75-7.06c.53-.53 1.23-.8 2.08-.8.85 0 1.54.27 2.08.8.54.55.82 1.21.82 2a2.7 2.7 0 0 1-.82 2c-.54.52-1.23.8-2.08.8-.85 0-1.55-.28-2.08-.8a2.7 2.7 0 0 1-.82-2c0-.79.27-1.45.82-2zm1.13 2.95c.25.25.57.37.95.37a1.28 1.28 0 0 0 1.3-1.32 1.28 1.28 0 0 0-1.3-1.33c-.38 0-.7.13-.95.38-.24.25-.36.57-.36.95s.12.7.36.95zm-10.84 7.79h-2.3V45.05h2.01l5.78 7.32v-7.32h2.29V56.5H239l-5.83-7.35zm20.04 0h-2.31v-8.92l-2.42 1.22v-2.3l2.68-1.44h2.05zm10.8 0h-4.81v-8.15h4.61c.83 0 1.48.2 1.93.58.46.38.7.89.7 1.5 0 .82-.34 1.4-1 1.74 1.03.36 1.55 1.05 1.55 2.1 0 .69-.26 1.24-.79 1.63-.52.4-1.25.6-2.19.6zm-2.54-3.45v1.83h1.97c.8 0 1.2-.3 1.2-.91 0-.61-.4-.92-1.2-.92zm0-3.12v1.67h1.6c.74 0 1.1-.28 1.1-.84 0-.55-.36-.83-1.1-.83zm13.33 6.57h-2.36V45.05h5c1.24 0 2.21.32 2.92.97a3.14 3.14 0 0 1 1.08 2.48c0 1.03-.36 1.87-1.08 2.5-.71.64-1.68.96-2.91.96h-2.65zm0-9.38v2.84h2.48c.57 0 1.01-.12 1.33-.36.32-.25.47-.6.47-1.06 0-.46-.15-.8-.47-1.05a2.12 2.12 0 0 0-1.33-.37zm15.6 9.82h-2.36v-1.26c-1.77-.06-3.14-.58-4.1-1.55a4.74 4.74 0 0 1-1.44-3.45 4.7 4.7 0 0 1 1.44-3.44 5.86 5.86 0 0 1 4.1-1.56v-1.04h2.37v1.04c1.76.07 3.12.59 4.1 1.56a4.7 4.7 0 0 1 1.43 3.44c0 1.33-.48 2.48-1.44 3.45-.96.97-2.32 1.49-4.1 1.55zm-2.36-3.38V47.8c-.99 0-1.75.27-2.3.79a2.73 2.73 0 0 0-.81 2.08c0 .86.27 1.55.81 2.07.55.52 1.31.79 2.3.81zm2.37-5.75v5.75c.98-.02 1.74-.3 2.29-.81.55-.52.82-1.2.82-2.07 0-.87-.27-1.56-.82-2.08a3.25 3.25 0 0 0-2.3-.8zm13.37 8.69h-2.3v-8.15h7.87v8.15h-2.31v-6.23h-3.26zm9.87-5.7a2.2 2.2 0 0 0-.64 1.61c0 .66.21 1.2.64 1.64.43.43.97.65 1.62.65.65 0 1.2-.22 1.62-.65.43-.45.64-1 .64-1.64a2.2 2.2 0 0 0-2.26-2.27c-.65 0-1.2.22-1.62.66zm-1.64 4.69a4.1 4.1 0 0 1-1.27-3.08c0-1.2.42-2.22 1.27-3.04a4.45 4.45 0 0 1 3.26-1.24c1.33 0 2.42.42 3.26 1.24a4.08 4.08 0 0 1 1.27 3.04 4.1 4.1 0 0 1-1.27 3.08 4.5 4.5 0 0 1-3.26 1.22 4.5 4.5 0 0 1-3.26-1.22zm15.4-4.7a2.2 2.2 0 0 0-.63 1.62c0 .66.2 1.2.63 1.64.43.43.97.65 1.62.65.66 0 1.2-.22 1.62-.65.43-.45.64-1 .64-1.64a2.2 2.2 0 0 0-2.26-2.27c-.65 0-1.19.22-1.62.66zm-1.63 4.7a4.1 4.1 0 0 1-1.28-3.08c0-1.2.43-2.22 1.28-3.04a4.45 4.45 0 0 1 3.25-1.24c1.34 0 2.42.42 3.26 1.24a4.08 4.08 0 0 1 1.28 3.04 4.1 4.1 0 0 1-1.28 3.08 4.5 4.5 0 0 1-3.26 1.22 4.5 4.5 0 0 1-3.25-1.22zm10.77-5.23a3.66 3.66 0 0 1 3.04-1.39c1.07 0 1.94.33 2.6 1a3.57 3.57 0 0 1 1.02 2.64 4 4 0 0 1-1.23 3.02 4.15 4.15 0 0 1-3.04 1.18c-1.45 0-2.56-.48-3.33-1.44a6.02 6.02 0 0 1-1.16-3.87c0-1.1.15-2.02.46-2.77.3-.74.8-1.36 1.47-1.85.7-.51 1.5-.92 2.4-1.21.88-.3 2.04-.57 3.48-.8v2.14l-.87.15-.85.14-.77.17a9.6 9.6 0 0 0-1.39.4c-.35.14-.7.36-1.06.69-.45.4-.7 1-.77 1.8zm2.37 4.5c.59 0 1.07-.19 1.45-.58.37-.4.56-.9.56-1.5 0-.58-.18-1.04-.54-1.38a1.92 1.92 0 0 0-1.39-.52c-.45 0-.88.12-1.3.35-.43.24-.76.53-.99.9.01.87.21 1.55.6 2.03.39.47.92.7 1.61.7zm9.77 2.59c-.72 1.68-1.8 2.51-3.26 2.51-.67 0-1.22-.1-1.63-.32v-2.01c.38.21.8.33 1.24.33.42 0 .76-.13 1.04-.39.28-.25.54-.67.78-1.25l-3.52-7.87h2.49l2.16 5.35 2.04-5.35h2.44zm12.01-.85h-2.3V53.8c-.54.19-1.13.28-1.79.28-2.32 0-3.48-1.12-3.48-3.34v-2.41h2.3v2.19c0 .59.12 1 .36 1.24.23.25.63.37 1.18.37.58 0 1.06-.1 1.43-.3v-3.5h2.3zm9.04-.62c-.73.55-1.77.83-3.11.83a4.64 4.64 0 0 1-3.22-1.18 4 4 0 0 1-1.31-3.12c0-1.2.39-2.22 1.17-3.04a4.05 4.05 0 0 1 3.08-1.24c1.18 0 2.12.42 2.83 1.26.71.84 1.07 1.86 1.07 3.06v.6h-5.86c.12.55.42.97.9 1.26.5.3 1.1.44 1.83.44.9 0 1.78-.24 2.62-.72zm-5.35-4.3h3.58a1.65 1.65 0 0 0-1.72-1.63 1.78 1.78 0 0 0-1.87 1.63zm9.6 4.92h-2.3v-8.15h2.3v3.02h3.36v-3.02h2.3v8.15h-2.3v-3.2H374zm9.76 0h-2.16v-8.15h2.27v4.8l3.7-4.8h2.16v8.15h-2.27v-4.8zm18.7-1.01a4.03 4.03 0 0 1-3.04 1.22c-1.08 0-2-.32-2.76-.96a4.14 4.14 0 0 1-1.38-2.47h-1.3v3.22h-2.32v-8.15h2.31v3h1.36c.22-.94.69-1.72 1.4-2.32.74-.6 1.63-.9 2.7-.9a4.15 4.15 0 0 1 4.24 4.28c0 1.23-.4 2.25-1.2 3.08zm-4.5-1.44c.38.43.86.65 1.46.65.58 0 1.05-.22 1.42-.65.36-.44.55-.98.55-1.64 0-.65-.19-1.2-.55-1.62a1.77 1.77 0 0 0-1.42-.65c-.59 0-1.07.22-1.44.65a2.4 2.4 0 0 0-.55 1.62c0 .65.18 1.2.54 1.64zm-164.9 22.29h-2.31v-8.15h7.87v8.15h-2.31V70.1h-3.26zm9.8-7.16c.6-.8 1.5-1.2 2.68-1.2 1.11 0 2.03.4 2.75 1.24.73.8 1.1 1.82 1.1 3.05 0 1.2-.37 2.23-1.1 3.05a3.5 3.5 0 0 1-2.75 1.23c-1.14 0-2.04-.4-2.68-1.2v4.26h-2.31V68.18h2.3zm3.61 1.45c-.4-.43-.93-.65-1.58-.65a2.37 2.37 0 0 0-2.03 1.23v2.12a2.34 2.34 0 0 0 2.03 1.21c.65 0 1.18-.22 1.58-.65.42-.45.63-.99.63-1.62 0-.64-.21-1.19-.63-1.64zm6.67 0a2.2 2.2 0 0 0-.64 1.62c0 .66.21 1.2.64 1.64.42.43.96.65 1.62.65.65 0 1.2-.22 1.62-.65.42-.45.63-1 .63-1.64a2.2 2.2 0 0 0-2.25-2.27c-.66 0-1.2.22-1.62.65zm-1.64 4.7a4.12 4.12 0 0 1-1.28-3.08c0-1.2.43-2.22 1.28-3.03a4.43 4.43 0 0 1 3.26-1.25c1.33 0 2.41.42 3.25 1.25a4.07 4.07 0 0 1 1.28 3.03c0 1.22-.43 2.25-1.28 3.07a4.52 4.52 0 0 1-3.25 1.23c-1.32 0-2.41-.41-3.26-1.23zm13.12-7.24v-3.19h2.28v3.19c1.4.06 2.5.48 3.29 1.25.8.77 1.2 1.74 1.2 2.91a3.8 3.8 0 0 1-1.18 2.9 5.25 5.25 0 0 1-3.31 1.27v3.19h-2.28v-3.2a4.82 4.82 0 0 1-3.32-1.23 3.97 3.97 0 0 1-1.18-2.93c0-1.18.4-2.15 1.2-2.89.78-.74 1.89-1.16 3.3-1.27zm0 6.48v-4.62c-.7.04-1.25.27-1.66.68-.4.4-.61.95-.61 1.62 0 .68.2 1.22.61 1.65.41.41.97.64 1.66.67zm2.28-4.62v4.62a2.4 2.4 0 0 0 1.66-.67c.41-.43.61-.97.61-1.65 0-.67-.2-1.21-.6-1.62-.42-.41-.97-.64-1.67-.68zm12.96 5.77c-.73.55-1.77.83-3.1.83a4.63 4.63 0 0 1-3.23-1.18 3.98 3.98 0 0 1-1.31-3.12c0-1.2.4-2.22 1.18-3.03a4.04 4.04 0 0 1 3.07-1.25c1.18 0 2.13.42 2.84 1.26.7.84 1.06 1.86 1.06 3.05v.61h-5.86c.12.55.42.96.9 1.26.5.3 1.1.44 1.83.44.9 0 1.78-.24 2.62-.72zm-5.35-4.3h3.58a1.64 1.64 0 0 0-1.72-1.63 1.78 1.78 0 0 0-1.87 1.63zm13.78 4.52c-.76.4-1.62.6-2.58.6a4.5 4.5 0 0 1-3.13-1.17 4.06 4.06 0 0 1-1.31-3.13c0-1.29.44-2.32 1.3-3.1a4.6 4.6 0 0 1 3.17-1.17c.9 0 1.7.18 2.42.54v1.96c-.7-.32-1.4-.49-2.08-.49-.72 0-1.32.21-1.82.64-.48.41-.72.96-.72 1.63 0 .68.25 1.23.74 1.65.5.43 1.1.64 1.8.64a4.3 4.3 0 0 0 2.21-.55zm7.96 0c-.77.4-1.63.6-2.6.6a4.5 4.5 0 0 1-3.12-1.17 4.06 4.06 0 0 1-1.3-3.13c0-1.29.43-2.32 1.3-3.1a4.6 4.6 0 0 1 3.16-1.17c.9 0 1.7.18 2.42.54v1.96c-.7-.32-1.4-.49-2.07-.49-.72 0-1.33.21-1.82.64-.48.41-.72.96-.72 1.63 0 .68.24 1.23.74 1.65.49.43 1.09.64 1.8.64a4.3 4.3 0 0 0 2.2-.55zm3.8.4h-2.17v-8.15h2.28v4.8l3.7-4.8h2.16v8.15h-2.28v-4.8zm10.06 0h-2.16v-8.15h2.27v4.8l3.7-4.8h2.16v8.15h-2.27v-4.8zm14.25 0h-2.35V64.89h2.35v4.28h5.18V64.9h2.34v11.44h-2.34V71.3h-5.18zm16.7-.62c-.73.55-1.77.83-3.11.83a4.63 4.63 0 0 1-3.23-1.18 3.98 3.98 0 0 1-1.3-3.12c0-1.2.39-2.22 1.17-3.03a4.04 4.04 0 0 1 3.08-1.25c1.18 0 2.12.42 2.83 1.26.71.84 1.06 1.86 1.06 3.05v.61h-5.85c.12.55.42.96.9 1.26.49.3 1.1.44 1.83.44.9 0 1.78-.24 2.62-.72zm-5.35-4.3h3.58a1.64 1.64 0 0 0-1.72-1.63 1.78 1.78 0 0 0-1.87 1.63zm14.5 2.52c0 .41.19.62.57.62.2 0 .35-.04.47-.1v1.68c-.29.23-.7.34-1.24.34-.93 0-1.54-.34-1.85-1.04a3.75 3.75 0 0 1-2.81 1.1c-.9 0-1.62-.24-2.18-.74a2.53 2.53 0 0 1-.84-1.98c0-.87.32-1.54.95-2 .64-.45 1.4-.68 2.28-.68a5 5 0 0 1 2.36.5v-.24c0-1.02-.72-1.53-2.17-1.53-.88 0-1.7.22-2.47.68v-1.92a6.45 6.45 0 0 1 3.03-.66c1.18 0 2.12.29 2.82.85a2.83 2.83 0 0 1 1.08 2.36zm-4.14.83c.8 0 1.42-.28 1.85-.83v-.82a3.04 3.04 0 0 0-1.7-.48c-.5 0-.89.1-1.18.28a.88.88 0 0 0-.43.79c0 .35.13.6.4.8.25.17.6.26 1.06.26zm10.1 1.49c-.4.2-.88.29-1.46.29-.68 0-1.21-.18-1.6-.55-.39-.36-.58-.93-.58-1.7v-9.4h2.3v8.8c0 .53.25.8.74.8.23 0 .43-.04.6-.14zm4.41.29c-1.78 0-2.66-.91-2.66-2.74v-3.7h-1.6v-1.92h1.6v-2.24h2.3v2.24h2.33v1.92h-2.33v3.24c0 .4.09.7.26.87.18.18.46.27.86.27.4 0 .8-.1 1.2-.3v1.92c-.49.3-1.14.44-1.96.44zm5.76-5.4v5.19h-2.3V64.89h2.3v4.28c.75-.8 1.66-1.2 2.74-1.2.94 0 1.67.29 2.2.88.51.6.78 1.42.78 2.48v5h-2.31V71.8c0-.59-.15-1.02-.44-1.3a1.54 1.54 0 0 0-1.12-.43 2.38 2.38 0 0 0-1.85 1.06zm20.54 4.58c-.92.56-2 .84-3.25.84a6.22 6.22 0 0 1-4.44-1.67 5.69 5.69 0 0 1-1.77-4.28c0-1.74.59-3.17 1.76-4.28a6.23 6.23 0 0 1 4.45-1.67c1.11 0 2.12.24 3.03.72v2.37a5.31 5.31 0 0 0-3.02-.88c-1.08 0-1.99.35-2.73 1.06a3.56 3.56 0 0 0-1.08 2.68c0 1.09.37 1.99 1.11 2.7a3.9 3.9 0 0 0 2.8 1.04 4.9 4.9 0 0 0 3.14-1zm3.93-5.1a2.2 2.2 0 0 0-.64 1.62c0 .66.22 1.2.64 1.64.43.43.97.65 1.62.65.66 0 1.2-.22 1.62-.65.43-.45.64-1 .64-1.64a2.2 2.2 0 0 0-2.26-2.27c-.65 0-1.2.22-1.62.65zm-1.63 4.7a4.12 4.12 0 0 1-1.28-3.08c0-1.2.42-2.22 1.28-3.03a4.43 4.43 0 0 1 3.25-1.25c1.33 0 2.42.42 3.26 1.25a4.07 4.07 0 0 1 1.28 3.03c0 1.22-.43 2.25-1.28 3.07a4.52 4.52 0 0 1-3.26 1.23c-1.32 0-2.4-.41-3.25-1.23zm16.36-1.4c0 .42.2.63.58.63.2 0 .35-.04.47-.1v1.68c-.3.23-.7.34-1.24.34-.93 0-1.55-.34-1.85-1.04a3.75 3.75 0 0 1-2.82 1.1c-.9 0-1.62-.24-2.18-.74a2.53 2.53 0 0 1-.83-1.98c0-.87.32-1.54.95-2 .63-.45 1.4-.68 2.27-.68a5 5 0 0 1 2.36.5v-.24c0-1.02-.72-1.53-2.16-1.53-.88 0-1.7.22-2.47.68v-1.92a6.45 6.45 0 0 1 3.03-.66c1.18 0 2.11.29 2.81.85a2.82 2.82 0 0 1 1.08 2.36zm-4.14.84c.8 0 1.43-.28 1.85-.83v-.82a3.04 3.04 0 0 0-1.7-.48c-.5 0-.88.1-1.17.28a.88.88 0 0 0-.43.79c0 .35.13.6.39.8.26.17.61.26 1.06.26zm12.95 1.17c-.77.4-1.63.6-2.59.6a4.5 4.5 0 0 1-3.12-1.17 4.06 4.06 0 0 1-1.31-3.13c0-1.29.43-2.32 1.3-3.1a4.6 4.6 0 0 1 3.16-1.17c.9 0 1.7.18 2.43.54v1.96c-.71-.32-1.4-.49-2.08-.49-.72 0-1.33.21-1.82.64-.48.41-.72.96-.72 1.63 0 .68.25 1.23.74 1.65.49.43 1.09.64 1.8.64a4.3 4.3 0 0 0 2.2-.55zm3.94-4.8v5.2H416V64.89h2.3v4.28c.74-.8 1.66-1.2 2.74-1.2.93 0 1.66.29 2.19.88.52.6.78 1.42.78 2.48v5h-2.3V71.8c0-.59-.15-1.02-.44-1.3a1.54 1.54 0 0 0-1.12-.43 2.38 2.38 0 0 0-1.85 1.06z"/><linearGradient id="6rg4b" x1="52" x2="83" y1="79.03" y2="34.08" gradientUnits="userSpaceOnUse"><stop offset="0" stop-color="#ffb41a"/><stop offset="1" stop-color="#ffe421"/></linearGradient><linearGradient id="6rg4d" x1="79.51" x2="122.51" y1="82.99" y2="23" gradientUnits="userSpaceOnUse"><stop offset="0" stop-color="#3439ea"/><stop offset="1" stop-color="#1b9ef0"/></linearGradient></defs><g><g transform="translate(-52 -18)"><use fill="url(#6rg4b)" xlink:href="#6rg4a"/></g><g transform="translate(-52 -18)"><use fill="url(#6rg4d)" xlink:href="#6rg4c"/></g><g transform="translate(-52 -18)"><use fill="#fff" xlink:href="#6rg4e"/></g><g transform="translate(-52 -18)"><use fill="#6a91cc" xlink:href="#6rg4f"/></g></g></svg>