<svg id="logo_header" xmlns="http://www.w3.org/2000/svg" xmlns:xlink="http://www.w3.org/1999/xlink" width="318.219" height="59.969" viewBox="0 0 318.219 59.969">
  <metadata><?xpacket begin="﻿" id="W5M0MpCehiHzreSzNTczkc9d"?>
<x:xmpmeta xmlns:x="adobe:ns:meta/" x:xmptk="Adobe XMP Core 5.6-c142 79.160924, 2017/07/13-01:06:39        ">
   <rdf:RDF xmlns:rdf="http://www.w3.org/1999/02/22-rdf-syntax-ns#">
      <rdf:Description rdf:about=""/>
   </rdf:RDF>
</x:xmpmeta>
                                                                                                    
                                                                                                    
                                                                                                    
                                                                                                    
                                                                                                    
                                                                                                    
                                                                                                    
                                                                                                    
                                                                                                    
                                                                                                    
                                                                                                    
                                                                                                    
                                                                                                    
                                                                                                    
                                                                                                    
                                                                                                    
                                                                                                    
                                                                                                    
                                                                                                    
                                                                                                    
                           
<?xpacket end="w"?></metadata>
<defs>
    <style>
      .cls-1, .cls-2, .cls-3, .cls-4 {
        fill-rule: evenodd;
      }

      .cls-1 {
        fill: url(#linear-gradient);
      }

      .cls-2 {
        fill: url(#linear-gradient-2);
      }

      .cls-3 {
        fill: #183771;
      }

      .cls-4 {
        fill: #6a91cc;
      }
    </style>
    <linearGradient id="linear-gradient" x1="393.969" y1="254.142" x2="420.688" y2="215.983" gradientUnits="userSpaceOnUse">
      <stop offset="0" stop-color="#ffb41a"/>
      <stop offset="1" stop-color="#ffe421"/>
    </linearGradient>
    <linearGradient id="linear-gradient-2" x1="417.531" y1="258.057" x2="454" y2="205.974" gradientUnits="userSpaceOnUse">
      <stop offset="0" stop-color="#3439ea"/>
      <stop offset="1" stop-color="#1b9ef0"/>
    </linearGradient>
  </defs>
  <path class="cls-1" d="M412.226,231.81c-4.933,0-7.928,2.855-7.928,5.24,0,4.2,3.452,8.947,7.162,12.832a80.037,80.037,0,0,0,8.674,7.649c0.19,0.142.3,0.215,0.3,0.215s-26.447-11.982-26.447-29.455c0-9.671,6.876-15.922,6.876-15.922s-3.173,5.787-3.173,10.878a25.954,25.954,0,0,0,1.843,9.295c1-2.111,4.16-3.457,10.586-3.457a15.135,15.135,0,0,1,10.579,4.25S419.17,231.81,412.226,231.81Zm-6.209-5.641a4.113,4.113,0,1,1,4.1-4.115A4.109,4.109,0,0,1,406.017,226.169Z" transform="translate(-393.969 -202.031)"/>
  <path id="Ellipse_2_copy" data-name="Ellipse 2 copy" class="cls-2" d="M439.559,234.661c0-2.56-2.087-7.166-9.874-7.166-7.66,0-12.165,2.653-12.165,2.653s6.494-6.368,19.835-6.368c6,0,9.27,3.749,10.05,4.244,6.624-9.586-2.381-26-2.381-26s8.991,7.831,8.991,18.31C454.015,249.706,419.9,262,419.9,262S439.559,247.716,439.559,234.661Zm-0.879-14.068a5.572,5.572,0,1,1,5.554-5.572A5.559,5.559,0,0,1,438.68,220.593Z" transform="translate(-393.969 -202.031)"/>
  <path id="АСИЗ" class="cls-3" d="M469.95,236.284h5.92l1.38,3.24h3.06l-6-14.08h-2.76l-6,14.08h3.02Zm5-2.38h-4.1l2.06-4.86Zm16.9,4.88v-2.9a5.994,5.994,0,0,1-3.84,1.22,4.75,4.75,0,0,1-3.42-1.28,4.709,4.709,0,0,1-.04-6.58,4.649,4.649,0,0,1,3.34-1.3,6.483,6.483,0,0,1,3.68,1.08v-2.9a7.772,7.772,0,0,0-3.7-.88,7.609,7.609,0,0,0-5.44,2.04,7.461,7.461,0,0,0,.02,10.48,8.242,8.242,0,0,0,9.4,1.02h0Zm11.34-8.44v9.18h2.86v-14h-2.48l-6.78,9.12v-9.12h-2.88v14h2.42Zm14.12,8.2a3.939,3.939,0,0,0,1.6-3.16,3.356,3.356,0,0,0-.66-2.09,3.772,3.772,0,0,0-1.74-1.27,3.288,3.288,0,0,0,1.35-1.07,2.793,2.793,0,0,0,.55-1.73,3.44,3.44,0,0,0-1.46-2.88,6.145,6.145,0,0,0-3.86-1.1,9.638,9.638,0,0,0-4.62,1.04v2.66a9.79,9.79,0,0,1,4.48-1.04,3.967,3.967,0,0,1,1.92.39,1.2,1.2,0,0,1,.7,1.09q0,1.539-2.26,1.54h-2.1v2.42h1.76a4.452,4.452,0,0,1,2.19.45,1.412,1.412,0,0,1,.79,1.29,1.675,1.675,0,0,1-.89,1.5,4.809,4.809,0,0,1-2.49.54,8.428,8.428,0,0,1-2.46-.39,7.834,7.834,0,0,1-2.2-1.03v2.8a9.18,9.18,0,0,0,5.06,1.3,6.78,6.78,0,0,0,4.34-1.26h0Z" transform="translate(-393.969 -202.031)"/>
  <path id="_1_в_РФ_по_обучению_профессии_Health_Coach" data-name="№1 в РФ по обучению профессии Health Coach" class="cls-4" d="M561.329,228.646h-4.564v1.2h4.564v-1.2Zm-4.76-3.136a2.323,2.323,0,0,0,.7,1.708,2.647,2.647,0,0,0,3.556,0,2.434,2.434,0,0,0,0-3.416,2.647,2.647,0,0,0-3.556,0A2.323,2.323,0,0,0,556.569,225.51Zm1.358,0a1.125,1.125,0,0,1,.308-0.812,1.1,1.1,0,0,1,.812-0.322,1.083,1.083,0,0,1,.8.322,1.185,1.185,0,0,1,0,1.624,1.083,1.083,0,0,1-.8.322,1.1,1.1,0,0,1-.812-0.322A1.125,1.125,0,0,1,557.927,225.51Zm-8.96,1.19,4.984,6.3h1.666v-9.8h-1.96v6.272l-4.942-6.272h-1.722V233h1.974v-6.3Zm17.136-3.5h-1.75l-2.3,1.232v1.974l2.072-1.05V233H566.1v-9.8Zm11.116,9.289a1.671,1.671,0,0,0,.672-1.407,1.769,1.769,0,0,0-1.33-1.792,1.529,1.529,0,0,0,.854-1.484,1.615,1.615,0,0,0-.588-1.3,2.488,2.488,0,0,0-1.652-.5h-3.948V233h4.116A3.038,3.038,0,0,0,577.219,232.489Zm-2.366-2.443q1.022,0,1.022.784t-1.022.784h-1.68v-1.568h1.68Zm-0.308-2.674q0.938,0,.938.714t-0.938.714h-1.372v-1.428h1.372Zm10.024,1.75h2.268a3.57,3.57,0,0,0,2.492-.826,2.929,2.929,0,0,0,0-4.27,3.57,3.57,0,0,0-2.492-.826h-4.284V233h2.016v-3.878Zm2.128-4.158a1.812,1.812,0,0,1,1.134.315,1.207,1.207,0,0,1,0,1.806,1.812,1.812,0,0,1-1.134.315h-2.128v-2.436H586.7Zm11.228,7.336a4.977,4.977,0,0,0,3.5-1.33,4.157,4.157,0,0,0,0-5.908,5.012,5.012,0,0,0-3.5-1.33v-0.9H595.9v0.9a5.008,5.008,0,0,0-3.5,1.33,4.157,4.157,0,0,0,0,5.908,4.975,4.975,0,0,0,3.5,1.33v1.078h2.03V232.3Zm-3.99-2.513a2.608,2.608,0,0,1,0-3.556,2.779,2.779,0,0,1,1.96-.679v4.928A2.831,2.831,0,0,1,593.935,229.787Zm5.95-3.556a2.608,2.608,0,0,1,0,3.556,2.832,2.832,0,0,1-1.96.693v-4.928A2.78,2.78,0,0,1,599.885,226.231Zm9.477,1.435h2.786V233h1.974v-6.986h-6.734V233h1.974v-5.334Zm8.442,0.448a2,2,0,0,1,2.772,0,1.878,1.878,0,0,1,.546,1.386,1.956,1.956,0,0,1-.546,1.4,2,2,0,0,1-2.772,0,1.925,1.925,0,0,1-.546-1.4,1.878,1.878,0,0,1,.546-1.386h0Zm-1.4,4.018a4.221,4.221,0,0,0,5.572,0,3.684,3.684,0,0,0,0-5.236,4.179,4.179,0,0,0-5.572,0,3.467,3.467,0,0,0-1.092,2.6,3.528,3.528,0,0,0,1.092,2.632h0Zm13.174-4.018a2,2,0,0,1,2.772,0,1.878,1.878,0,0,1,.546,1.386,1.956,1.956,0,0,1-.546,1.4,2,2,0,0,1-2.772,0,1.925,1.925,0,0,1-.546-1.4,1.878,1.878,0,0,1,.546-1.386h0Zm-1.4,4.018a4.221,4.221,0,0,0,5.572,0,3.684,3.684,0,0,0,0-5.236,4.179,4.179,0,0,0-5.572,0,3.467,3.467,0,0,0-1.092,2.6,3.528,3.528,0,0,0,1.092,2.632h0Zm9.212-4.48a2.191,2.191,0,0,1,.658-1.54,2.885,2.885,0,0,1,.91-0.588,8.229,8.229,0,0,1,1.19-.35q0.364-.084.658-0.14l0.728-.126,0.742-.126v-1.834a18.162,18.162,0,0,0-2.982.686,7.253,7.253,0,0,0-2.044,1.036,3.63,3.63,0,0,0-1.26,1.589,6.3,6.3,0,0,0-.392,2.373,5.167,5.167,0,0,0,.994,3.318,3.417,3.417,0,0,0,2.842,1.232,3.552,3.552,0,0,0,2.6-1.008,3.432,3.432,0,0,0,1.05-2.59,3.067,3.067,0,0,0-.868-2.268,3.011,3.011,0,0,0-2.226-.854,3.13,3.13,0,0,0-2.6,1.19h0Zm0.651,3.255a2.749,2.749,0,0,1-.511-1.743,2.439,2.439,0,0,1,1.96-1.064,1.653,1.653,0,0,1,1.19.441,1.558,1.558,0,0,1,.462,1.183,1.785,1.785,0,0,1-.483,1.288,1.641,1.641,0,0,1-1.239.5A1.681,1.681,0,0,1,638.041,230.907Zm9.737,2.821,3.234-7.714h-2.086l-1.75,4.592-1.848-4.592H643.2l3.01,6.748a3.034,3.034,0,0,1-.665,1.071,1.263,1.263,0,0,1-.889.329,2.1,2.1,0,0,1-1.064-.28V235.6a3.037,3.037,0,0,0,4.186-1.876h0Zm10.276-7.714H656.08v3a2.48,2.48,0,0,1-1.218.266,1.363,1.363,0,0,1-1.015-.315,1.529,1.529,0,0,1-.3-1.071v-1.876h-1.974v2.072q0,2.856,2.982,2.856a4.623,4.623,0,0,0,1.526-.238V233h1.974v-6.986Zm7.728,6.454v-1.582a4.451,4.451,0,0,1-2.24.616,2.964,2.964,0,0,1-1.561-.378,1.625,1.625,0,0,1-.777-1.078h5.012v-0.518a3.921,3.921,0,0,0-.91-2.618,3.01,3.01,0,0,0-2.422-1.078,3.46,3.46,0,0,0-2.632,1.064,3.614,3.614,0,0,0-1.008,2.6,3.421,3.421,0,0,0,1.12,2.674,3.973,3.973,0,0,0,2.758,1.008,4.315,4.315,0,0,0,2.66-.714h0Zm-4.074-4.7a1.582,1.582,0,0,1,1.092-.385,1.411,1.411,0,0,1,1.043.4,1.461,1.461,0,0,1,.427,1H661.2A1.533,1.533,0,0,1,661.708,227.771Zm7.714,2.485h2.87V233h1.974v-6.986h-1.974v2.59h-2.87v-2.59h-1.974V233h1.974v-2.744Zm11.508-1.372V233h1.946v-6.986h-1.848l-3.164,4.116v-4.116h-1.946V233h1.848Zm12.838,3.248a3.654,3.654,0,0,0,1.022-2.632,3.559,3.559,0,0,0-1.022-2.6,3.427,3.427,0,0,0-2.6-1.064,3.5,3.5,0,0,0-2.3.77,3.548,3.548,0,0,0-1.2,1.988H686.5v-2.576h-1.974V233H686.5v-2.758h1.12a3.462,3.462,0,0,0,3.542,2.94,3.449,3.449,0,0,0,2.6-1.05h0Zm-3.85-1.232a2.162,2.162,0,0,1-.462-1.4,2.062,2.062,0,0,1,.476-1.393,1.548,1.548,0,0,1,1.232-.553,1.514,1.514,0,0,1,1.211.553,2.078,2.078,0,0,1,.469,1.393,2.1,2.1,0,0,1-.469,1.4,1.508,1.508,0,0,1-1.211.56,1.558,1.558,0,0,1-1.246-.56h0ZM548.855,244.666h2.786V250h1.974v-6.986h-6.734V250h1.974v-5.334Zm8.386-.8v-0.854h-1.974V252.8h1.974v-3.654a2.771,2.771,0,0,0,2.3,1.036,3,3,0,0,0,2.352-1.05,3.818,3.818,0,0,0,.938-2.618,3.754,3.754,0,0,0-.938-2.618,2.979,2.979,0,0,0-2.352-1.064,2.7,2.7,0,0,0-2.3,1.036h0Zm3.094,1.246a2.09,2.09,0,0,1,0,2.786,1.765,1.765,0,0,1-1.358.56,1.9,1.9,0,0,1-1.022-.287,1.994,1.994,0,0,1-.714-0.749V245.6a2.051,2.051,0,0,1,.714-0.756,1.863,1.863,0,0,1,1.022-.294,1.765,1.765,0,0,1,1.358.56h0Zm5.7,0a2,2,0,0,1,2.772,0,1.878,1.878,0,0,1,.546,1.386,1.956,1.956,0,0,1-.546,1.4,2,2,0,0,1-2.772,0,1.925,1.925,0,0,1-.546-1.4,1.878,1.878,0,0,1,.546-1.386h0Zm-1.4,4.018a4.221,4.221,0,0,0,5.572,0,3.684,3.684,0,0,0,0-5.236,4.179,4.179,0,0,0-5.572,0,3.467,3.467,0,0,0-1.092,2.6,3.528,3.528,0,0,0,1.092,2.632h0Zm8.393-5.11a3.242,3.242,0,0,0-1.015,2.478,3.4,3.4,0,0,0,1.008,2.506,4.127,4.127,0,0,0,2.842,1.064v2.73h1.946v-2.73a4.5,4.5,0,0,0,2.835-1.085,3.26,3.26,0,0,0,1-2.485,3.3,3.3,0,0,0-1.022-2.492,4.161,4.161,0,0,0-2.814-1.078V240.2h-1.946v2.73A4.508,4.508,0,0,0,573.026,244.022Zm1.414,3.885a1.93,1.93,0,0,1-.525-1.407,1.882,1.882,0,0,1,.525-1.393,2.114,2.114,0,0,1,1.421-.581v3.962A2.033,2.033,0,0,1,574.44,247.907Zm4.788-2.8a1.882,1.882,0,0,1,.525,1.393,1.93,1.93,0,0,1-.525,1.407,2.035,2.035,0,0,1-1.421.581v-3.962A2.116,2.116,0,0,1,579.228,245.107Zm9.666,4.361v-1.582a4.449,4.449,0,0,1-2.24.616,2.966,2.966,0,0,1-1.561-.378,1.625,1.625,0,0,1-.777-1.078h5.012v-0.518a3.921,3.921,0,0,0-.91-2.618A3.008,3.008,0,0,0,586,242.832a3.462,3.462,0,0,0-2.632,1.064,3.614,3.614,0,0,0-1.008,2.6,3.425,3.425,0,0,0,1.12,2.674,3.973,3.973,0,0,0,2.758,1.008,4.315,4.315,0,0,0,2.66-.714h0Zm-4.074-4.7a1.586,1.586,0,0,1,1.092-.385,1.41,1.41,0,0,1,1.043.4,1.457,1.457,0,0,1,.427,1h-3.066A1.533,1.533,0,0,1,584.82,244.771Zm11.284,4.893v-1.68a3.67,3.67,0,0,1-1.89.476,2.271,2.271,0,0,1-1.54-.546,1.783,1.783,0,0,1-.63-1.414,1.762,1.762,0,0,1,.616-1.4,2.289,2.289,0,0,1,1.554-.546,4.222,4.222,0,0,1,1.778.42v-1.68a4.567,4.567,0,0,0-2.072-.462,3.931,3.931,0,0,0-2.7,1.008,3.367,3.367,0,0,0-1.12,2.646,3.5,3.5,0,0,0,1.12,2.688,3.862,3.862,0,0,0,2.674,1.008,4.661,4.661,0,0,0,2.212-.518h0Zm6.8,0v-1.68a3.67,3.67,0,0,1-1.89.476,2.271,2.271,0,0,1-1.54-.546,1.783,1.783,0,0,1-.63-1.414,1.762,1.762,0,0,1,.616-1.4,2.289,2.289,0,0,1,1.554-.546,4.222,4.222,0,0,1,1.778.42v-1.68a4.567,4.567,0,0,0-2.072-.462,3.931,3.931,0,0,0-2.7,1.008,3.367,3.367,0,0,0-1.12,2.646,3.5,3.5,0,0,0,1.12,2.688,3.862,3.862,0,0,0,2.674,1.008,4.661,4.661,0,0,0,2.212-.518h0Zm6.412-3.78V250h1.946v-6.986h-1.848l-3.164,4.116v-4.116h-1.946V250h1.848Zm8.61,0V250h1.946v-6.986h-1.848l-3.164,4.116v-4.116h-1.946V250h1.848Zm9.03-.182h4.424V250h2v-9.8h-2v3.668H626.96V240.2h-2.016V250h2.016v-4.3Zm14.28,3.766v-1.582a4.451,4.451,0,0,1-2.24.616,2.964,2.964,0,0,1-1.561-.378,1.625,1.625,0,0,1-.777-1.078h5.012v-0.518a3.921,3.921,0,0,0-.91-2.618,3.01,3.01,0,0,0-2.422-1.078,3.46,3.46,0,0,0-2.632,1.064,3.614,3.614,0,0,0-1.008,2.6,3.421,3.421,0,0,0,1.12,2.674,3.973,3.973,0,0,0,2.758,1.008,4.315,4.315,0,0,0,2.66-.714h0Zm-4.074-4.7a1.582,1.582,0,0,1,1.092-.385,1.411,1.411,0,0,1,1.043.4,1.461,1.461,0,0,1,.427,1h-3.066A1.533,1.533,0,0,1,637.166,244.771Zm11.9,3.171v-2.366a2.423,2.423,0,0,0-.924-2.016,3.707,3.707,0,0,0-2.408-.728,5.507,5.507,0,0,0-2.59.56v1.652a4.036,4.036,0,0,1,2.114-.588q1.848,0,1.848,1.316v0.21a4.3,4.3,0,0,0-2.016-.434,3.228,3.228,0,0,0-1.946.588,1.978,1.978,0,0,0-.812,1.708,2.172,2.172,0,0,0,.714,1.694,2.676,2.676,0,0,0,1.862.644,3.2,3.2,0,0,0,2.408-.952,1.551,1.551,0,0,0,1.582.9,1.7,1.7,0,0,0,1.064-.294V248.39a0.848,0.848,0,0,1-.406.084,0.452,0.452,0,0,1-.49-0.532h0Zm-3.542.714a1.582,1.582,0,0,1-.91-0.231,0.771,0.771,0,0,1-.336-0.679,0.756,0.756,0,0,1,.371-0.672,1.833,1.833,0,0,1,1-.238,2.583,2.583,0,0,1,1.456.406v0.7a1.87,1.87,0,0,1-1.582.714h0Zm8.638,1.274v-1.624a0.962,0.962,0,0,1-.5.126,0.59,0.59,0,0,1-.63-0.7V240.2h-1.974v8.05a1.7,1.7,0,0,0,1.862,1.932,2.772,2.772,0,0,0,1.246-.252h0Zm3.78,0.252a3.169,3.169,0,0,0,1.666-.378v-1.638a2.265,2.265,0,0,1-1.022.252,0.98,0.98,0,0,1-.728-0.231,1.047,1.047,0,0,1-.224-0.749v-2.772h1.988v-1.652h-1.988V241.1H655.66v1.918h-1.372v1.652h1.372v3.164a2.048,2.048,0,0,0,2.282,2.352h0Zm5.621-5.285a1.736,1.736,0,0,1,.889-0.259,1.311,1.311,0,0,1,.959.364,1.509,1.509,0,0,1,.371,1.12V250h1.974v-4.284a3.1,3.1,0,0,0-.672-2.121,2.369,2.369,0,0,0-1.876-.763,3.05,3.05,0,0,0-2.338,1.036V240.2H660.9V250h1.974v-4.452A2.031,2.031,0,0,1,663.563,244.9Zm16.877,4.585v-2.03a4.2,4.2,0,0,1-2.688.854,3.325,3.325,0,0,1-2.394-.9,3.3,3.3,0,0,1-.028-4.606,3.253,3.253,0,0,1,2.338-.91,4.539,4.539,0,0,1,2.576.756v-2.03a5.44,5.44,0,0,0-2.59-.616,5.326,5.326,0,0,0-3.808,1.428,5.222,5.222,0,0,0,.014,7.336,5.77,5.77,0,0,0,6.58.714h0Zm3.359-4.368a2,2,0,0,1,2.772,0,1.878,1.878,0,0,1,.546,1.386,1.956,1.956,0,0,1-.546,1.4,2,2,0,0,1-2.772,0,1.925,1.925,0,0,1-.546-1.4,1.878,1.878,0,0,1,.546-1.386h0Zm-1.4,4.018a4.221,4.221,0,0,0,5.572,0,3.684,3.684,0,0,0,0-5.236,4.179,4.179,0,0,0-5.572,0,3.467,3.467,0,0,0-1.092,2.6,3.528,3.528,0,0,0,1.092,2.632h0Zm14-1.19v-2.366a2.423,2.423,0,0,0-.924-2.016,3.707,3.707,0,0,0-2.408-.728,5.51,5.51,0,0,0-2.59.56v1.652a4.039,4.039,0,0,1,2.114-.588q1.848,0,1.848,1.316v0.21a4.291,4.291,0,0,0-2.016-.434,3.23,3.23,0,0,0-1.946.588,1.978,1.978,0,0,0-.812,1.708,2.172,2.172,0,0,0,.714,1.694,2.676,2.676,0,0,0,1.862.644,3.2,3.2,0,0,0,2.408-.952,1.552,1.552,0,0,0,1.582.9,1.7,1.7,0,0,0,1.064-.294V248.39a0.845,0.845,0,0,1-.406.084,0.453,0.453,0,0,1-.49-0.532h0Zm-3.542.714a1.584,1.584,0,0,1-.91-0.231,0.771,0.771,0,0,1-.336-0.679,0.756,0.756,0,0,1,.371-0.672,1.835,1.835,0,0,1,1-.238,2.581,2.581,0,0,1,1.456.406v0.7a1.87,1.87,0,0,1-1.582.714h0Zm11.074,1.008v-1.68a3.67,3.67,0,0,1-1.89.476,2.269,2.269,0,0,1-1.54-.546,1.783,1.783,0,0,1-.63-1.414,1.759,1.759,0,0,1,.616-1.4,2.289,2.289,0,0,1,1.554-.546,4.226,4.226,0,0,1,1.778.42v-1.68a4.57,4.57,0,0,0-2.072-.462,3.931,3.931,0,0,0-2.7,1.008,3.363,3.363,0,0,0-1.12,2.646,3.493,3.493,0,0,0,1.12,2.688,3.862,3.862,0,0,0,2.674,1.008,4.664,4.664,0,0,0,2.212-.518h0ZM708,244.9a1.736,1.736,0,0,1,.889-0.259,1.309,1.309,0,0,1,.959.364,1.509,1.509,0,0,1,.371,1.12V250h1.974v-4.284a3.1,3.1,0,0,0-.672-2.121,2.367,2.367,0,0,0-1.876-.763,3.051,3.051,0,0,0-2.338,1.036V240.2h-1.974V250h1.974v-4.452A2.031,2.031,0,0,1,708,244.9Z" transform="translate(-393.969 -202.031)"/>
</svg>
