<svg xmlns="http://www.w3.org/2000/svg" xmlns:xlink="http://www.w3.org/1999/xlink" width="900" height="75" viewBox="0 0 900 75"><defs><path id="5n4xa" d="M420.78 8738.18H396.4l27.85-37.19-27.85-37.02h24.4l23.7 30.96v12.29zm50.03 0h-24.4l27.86-37.19-27.85-37.02h24.39l23.7 30.96v12.29zm50.06 0h-24.4l27.86-37.19-27.85-37.02h24.39l23.7 30.96v12.29zm50.06 0h-24.4L574.4 8701l-27.86-37.02h24.4l23.7 30.96v12.29zm150.16 0h-24.4l27.86-37.19-27.85-37.02h24.4l23.7 30.96v12.29zm50.06 0h-24.4l27.86-37.19-27.85-37.02h24.4l23.7 30.96v12.29zm50.03 0h-24.4l27.86-37.19-27.85-37.02h24.39l23.7 30.96v12.29zm50.06 0h-24.4L874.7 8701l-27.86-37.02h24.4l23.7 30.96v12.29zm50.06 0h-24.4l27.86-37.19-27.86-37.02h24.4l23.7 30.96v12.29zm50.06 0h-24.4l27.85-37.19-27.85-37.02h24.4l23.7 30.96v12.29zm50.05 0h-24.39l27.85-37.19-27.85-37.02h24.4l23.7 30.96v12.29zm50.06 0h-24.4l27.86-37.19-27.85-37.02h24.4l23.7 30.96v12.29zm50.03 0h-24.4l27.86-37.19-27.85-37.02h24.39l23.7 30.96v12.29zm50.06 0h-24.4l27.86-37.19-27.85-37.02h24.39l23.7 30.96v12.29zm50.06 0h-24.4l27.86-37.19-27.86-37.02h24.4l23.7 30.96v12.29zm50.06 0h-24.4l27.86-37.19-27.86-37.02h24.4l23.7 30.96v12.29zm-650.7 0h-24.4l27.86-37.19-27.85-37.02h24.4l23.7 30.96v12.29zm50.05 0h-24.39L674.5 8701l-27.85-37.02h24.4l23.7 30.96v12.29z"/><linearGradient id="5n4xb" x1="396.39" x2="1295.39" y1="8701.18" y2="8700.97" gradientUnits="userSpaceOnUse"><stop offset="0" stop-color="#9fcbed"/><stop offset="1" stop-color="#54ff96"/></linearGradient></defs><g><g transform="translate(-396 -8664)"><use fill="url(#5n4xb)" xlink:href="#5n4xa"/></g></g></svg>