<svg id="middle1" xmlns="http://www.w3.org/2000/svg" width="360" height="370" viewBox="0 0 360 370">
  <metadata><?xpacket begin="﻿" id="W5M0MpCehiHzreSzNTczkc9d"?>
<x:xmpmeta xmlns:x="adobe:ns:meta/" x:xmptk="Adobe XMP Core 5.6-c140 79.160451, 2017/05/06-01:08:21        ">
   <rdf:RDF xmlns:rdf="http://www.w3.org/1999/02/22-rdf-syntax-ns#">
      <rdf:Description rdf:about=""/>
   </rdf:RDF>
</x:xmpmeta>
                                                                                                    
                                                                                                    
                                                                                                    
                                                                                                    
                                                                                                    
                                                                                                    
                                                                                                    
                                                                                                    
                                                                                                    
                                                                                                    
                                                                                                    
                                                                                                    
                                                                                                    
                                                                                                    
                                                                                                    
                                                                                                    
                                                                                                    
                                                                                                    
                                                                                                    
                                                                                                    
                           
<?xpacket end="w"?></metadata>
<defs>
    <style>
      .cls-1 {
        fill: #2e50eb;
      }

      .cls-1, .cls-2, .cls-3 {
        fill-rule: evenodd;
      }

      .cls-2 {
        fill: #fc0;
      }

      .cls-3 {
        fill: #465182;
      }
    </style>
  </defs>
  <path id="middle1-2" data-name="middle1" class="cls-1" d="M372,325V695H12V325H372Z" transform="translate(-12 -325)"/>
  <g>
    <path class="cls-2" d="M337.949,488.849c-7.726-1.028-22.117-12.908-16.832-23.323s-12.513-19.477-5.332-29.739c7.35-10.506,18.837-1.312,18.837-1.312s-21.309-35.083,12.525-43.608c18.358-4.627,20.358,19.433,24.469,24.152s17.91,0,21.58,8.252-7.537,27.254-2.986,34.718,8.4,19.724-6.283,25.768S349.96,490.447,337.949,488.849Zm11.686-69.86,12.152,30.3,6.971-8.415c0.826-1.162,1.98-2.155,3.116-1.3h0c0.962,0.725.468,1.926-.048,3.018l-6.544,15.65s0.663,17.184,0,23.474c-0.655,6.216,1.117,25.724,1.117,25.724H347.45s14.532-30.2,8.553-43.753c-2.462-5.582-14.728-13.554-18.324-15.8a1.544,1.544,0,0,1-.66-1.746h0a1.54,1.54,0,0,1,2.009-1.015l16.493,6.088-9.273-31.179c-0.382-1.171-.817-2.5.242-3.123h0C347.884,416.089,349.07,417.471,349.635,418.989Z" transform="translate(-12 -325)"/>
    <path id="Shape_5_copy" data-name="Shape 5 copy" class="cls-3" d="M349.635,418.989l12.152,30.3,6.971-8.415c0.826-1.162,1.98-2.155,3.116-1.3h0c0.962,0.725.468,1.926-.048,3.018l-6.544,15.65s0.663,17.184,0,23.474c-0.655,6.216,1.117,25.724,1.117,25.724H347.45s14.532-30.2,8.553-43.753c-2.462-5.582-14.728-13.554-18.324-15.8a1.544,1.544,0,0,1-.66-1.746h0a1.54,1.54,0,0,1,2.009-1.015l16.493,6.088-9.273-31.179c-0.382-1.171-.817-2.5.242-3.123h0C347.884,416.089,349.07,417.471,349.635,418.989Z" transform="translate(-12 -325)"/>
  </g>
</svg>
