<svg id="Header_mobile" xmlns="http://www.w3.org/2000/svg" xmlns:xlink="http://www.w3.org/1999/xlink" width="360" height="72" viewBox="0 0 360 72">
  <metadata><?xpacket begin="﻿" id="W5M0MpCehiHzreSzNTczkc9d"?>
<x:xmpmeta xmlns:x="adobe:ns:meta/" x:xmptk="Adobe XMP Core 5.6-c138 79.159824, 2016/09/14-01:09:01        ">
   <rdf:RDF xmlns:rdf="http://www.w3.org/1999/02/22-rdf-syntax-ns#">
      <rdf:Description rdf:about=""/>
   </rdf:RDF>
</x:xmpmeta>
                                                                                                    
                                                                                                    
                                                                                                    
                                                                                                    
                                                                                                    
                                                                                                    
                                                                                                    
                                                                                                    
                                                                                                    
                                                                                                    
                                                                                                    
                                                                                                    
                                                                                                    
                                                                                                    
                                                                                                    
                                                                                                    
                                                                                                    
                                                                                                    
                                                                                                    
                                                                                                    
                           
<?xpacket end="w"?></metadata>
<defs>
    <style>
      .cls-1, .cls-2, .cls-3 {
        fill-rule: evenodd;
      }

      .cls-1 {
        fill: url(#linear-gradient);
      }

      .cls-2 {
        fill: #9ac5ff;
      }

      .cls-3 {
        fill: #465182;
      }
    </style>
    <linearGradient id="linear-gradient" x1="180" y1="71.406" x2="180" y2="-713" gradientUnits="userSpaceOnUse">
      <stop offset="0" stop-color="#3439ea"/>
      <stop offset="1" stop-color="#1b9ef0"/>
    </linearGradient>
  </defs>
  <path class="cls-1" d="M360,8.009C302.507,43.485,239.886,66.078,176,70.5,143.383,72.754,69.149,73.056,0,42.862V-423.755c91.158-24.023,205.126,30.3,264-32.747,8.3-8.886,29.811-35.26,24-61-9.976-44.189-89.555-43.931-112-94-15.408-34.37-1.224-73.62,14.288-101.5H360V8.009Z"/>
  <g>
    <path class="cls-2" d="M69.889-535.832C60.271-523.008,18.85-515,20.137-566.019c0.309-12.238,7.35-31.153,26.916-34.862C64.06-604.1,65.308-585.1,68.52-581.858a85.333,85.333,0,0,0,6.641,6.38C84.477-567.087,82.756-552.983,69.889-535.832ZM39.6-509.979s6.913-73.379,10.28-73.379c2.286,0,.7,73.379.7,73.379H39.6Zm5.982-45.057-10.54-12.535a0.668,0.668,0,0,0-1.129.176,0.671,0.671,0,0,0,0,.516s9.652,15.832,9.07,24.47C42.782-539.344,45.585-555.036,45.585-555.036Zm2.479,12.073L48.8-555.2m1.172-17.757s3.762-6,5.077-4.682c0.625,0.625-5.235,11.358-5.235,11.358Z"/>
    <path id="Shape_7_copy" data-name="Shape 7 copy" class="cls-3" d="M39.6-509.979s6.913-73.379,10.28-73.379c2.286,0,.7,73.379.7,73.379H39.6Zm5.982-45.057-10.54-12.535a0.668,0.668,0,0,0-1.129.176,0.671,0.671,0,0,0,0,.516s9.652,15.832,9.07,24.47C42.782-539.344,45.585-555.036,45.585-555.036Zm2.479,12.073L48.8-555.2m1.172-17.757s3.762-6,5.077-4.682c0.625,0.625-5.235,11.358-5.235,11.358Z"/>
  </g>
</svg>
