<svg 
 xmlns="http://www.w3.org/2000/svg"
 xmlns:xlink="http://www.w3.org/1999/xlink"
 width="19px" height="19px">
<path fill-rule="evenodd"  fill="rgb(29, 207, 255)"
 d="M10.706,9.488 L18.139,16.920 C18.529,17.311 18.529,17.944 18.139,18.335 C17.748,18.726 17.115,18.726 16.724,18.335 L9.311,10.922 L1.980,18.456 C1.595,18.853 0.970,18.853 0.585,18.456 C0.200,18.060 0.200,17.419 0.585,17.024 L7.897,9.508 L0.461,2.072 C0.070,1.681 0.071,1.047 0.461,0.658 C0.851,0.267 1.485,0.266 1.875,0.657 L9.293,8.074 L16.626,0.537 C17.011,0.142 17.635,0.142 18.020,0.537 C18.405,0.933 18.406,1.574 18.021,1.971 L10.706,9.488 Z"/>
</svg>