<svg 
 xmlns="http://www.w3.org/2000/svg"
 xmlns:xlink="http://www.w3.org/1999/xlink"
 width="48px" height="47px">
<path fill-rule="evenodd"  fill="rgb(255, 255, 255)"
 d="M24.201,46.925 C11.282,46.925 0.771,36.417 0.771,23.497 C0.771,10.577 11.282,0.066 24.201,0.066 C37.120,0.066 47.631,10.577 47.631,23.497 C47.631,36.417 37.120,46.925 24.201,46.925 ZM37.526,20.761 L37.526,15.322 C37.526,12.482 35.216,10.173 32.375,10.173 L16.026,10.173 C13.186,10.173 10.876,12.482 10.876,15.322 L10.876,20.761 L10.876,31.671 C10.876,34.514 13.186,36.823 16.026,36.823 L32.376,36.823 C35.216,36.823 37.526,34.514 37.526,31.671 L37.526,20.761 ZM32.374,34.224 L16.026,34.224 C14.616,34.224 13.472,33.081 13.472,31.671 L13.472,20.761 L17.449,20.761 C17.106,21.604 16.914,22.529 16.914,23.497 C16.914,27.513 20.182,30.783 24.201,30.783 C28.221,30.783 31.489,27.513 31.489,23.497 C31.489,22.529 31.294,21.604 30.949,20.761 L34.928,20.761 L34.928,31.671 C34.928,33.081 33.783,34.224 32.374,34.224 ZM29.924,13.253 L33.854,13.242 L34.443,13.240 L34.443,13.825 L34.443,17.756 L29.940,17.774 L29.924,13.253 ZM24.200,28.186 C21.614,28.186 19.509,26.082 19.510,23.497 C19.511,22.473 19.842,21.529 20.397,20.759 C21.251,19.579 22.636,18.804 24.201,18.804 C25.766,18.804 27.152,19.579 28.005,20.761 C28.559,21.531 28.893,22.477 28.893,23.497 C28.893,26.082 26.785,28.186 24.200,28.186 Z"/>
</svg>