<svg 
 xmlns="http://www.w3.org/2000/svg"
 xmlns:xlink="http://www.w3.org/1999/xlink"
 width="48px" height="47px">
<path fill-rule="evenodd"  fill="rgb(255, 255, 255)"
 d="M24.405,0.062 C11.462,0.062 0.970,10.556 0.970,23.499 C0.970,36.442 11.462,46.933 24.405,46.933 C37.347,46.933 47.840,36.442 47.840,23.499 C47.840,10.556 37.347,0.062 24.405,0.062 ZM36.292,26.031 C37.385,27.097 38.540,28.103 39.521,29.279 C39.955,29.801 40.364,30.340 40.676,30.944 C41.121,31.809 40.720,32.755 39.946,32.808 L35.145,32.806 C33.905,32.906 32.919,32.410 32.087,31.560 C31.423,30.884 30.807,30.163 30.167,29.464 C29.906,29.180 29.630,28.906 29.303,28.696 C28.648,28.271 28.080,28.402 27.705,29.083 C27.322,29.779 27.235,30.550 27.199,31.323 C27.146,32.456 26.805,32.751 25.669,32.806 C23.242,32.921 20.939,32.551 18.799,31.326 C16.910,30.249 15.449,28.725 14.175,26.999 C11.696,23.638 9.796,19.946 8.090,16.151 C7.706,15.296 7.987,14.839 8.930,14.824 C10.497,14.789 12.064,14.793 13.631,14.822 C14.268,14.831 14.691,15.193 14.936,15.795 C15.782,17.881 16.820,19.863 18.121,21.702 C18.468,22.190 18.822,22.677 19.326,23.023 C19.882,23.406 20.306,23.280 20.568,22.658 C20.736,22.264 20.808,21.843 20.845,21.420 C20.969,19.970 20.984,18.522 20.768,17.079 C20.634,16.176 20.126,15.593 19.226,15.423 C18.768,15.335 18.835,15.166 19.058,14.905 C19.445,14.453 19.807,14.171 20.532,14.171 L25.956,14.171 C26.812,14.339 27.003,14.722 27.119,15.582 L27.124,21.610 C27.114,21.946 27.291,22.933 27.890,23.151 C28.369,23.309 28.685,22.924 28.972,22.621 C30.273,21.241 31.200,19.612 32.030,17.927 C32.396,17.181 32.712,16.412 33.019,15.642 C33.247,15.069 33.602,14.789 34.245,14.798 L39.469,14.804 C39.623,14.804 39.779,14.806 39.931,14.833 C40.812,14.985 41.053,15.364 40.780,16.221 C40.352,17.571 39.519,18.694 38.704,19.821 C37.832,21.028 36.901,22.194 36.037,23.404 C35.244,24.511 35.306,25.071 36.292,26.031 Z"/>
</svg>