<svg xmlns="http://www.w3.org/2000/svg" xmlns:xlink="http://www.w3.org/1999/xlink" width="334" height="349" viewBox="0 0 334 349"><defs><path id="dwxaa" d="M871.5 2073.5c142.49 0 258 115.5 258 258 0 142.49-115.51 258-258 258s-258-115.51-258-258c0-142.5 115.51-258 258-258z"/><path id="dwxab" d="M871.5 2202.5c71.24 0 129 57.75 129 129 0 71.24-57.76 129-129 129-71.25 0-129-57.76-129-129 0-71.25 57.75-129 129-129z"/><path id="dwxac" d="M871.5 2267a64.5 64.5 0 1 1 0 129 64.5 64.5 0 0 1 0-129z"/><path id="dwxad" d="M879.8 2290c4.04-.15 2.7 3.1 1.83 5.2-.42 1-.53 1.93-.92 2.95-2.22 5.84-4.07 12.04-6.45 17.82-1 2.44-1.54 4.96-2.55 7.33h9.92c.63.38 4 .1 5.02.1h10.03c1.3 0 3.35-.28 4.3.2.5.26.65.84 1.02 1.23.03 2.3-1.02 2.72-1.94 3.97-1.74 2.35-3.7 4.5-5.43 6.82-5.22 7-11.24 13.3-16.48 20.27-1.8 2.4-4.12 4.52-5.93 6.92a161.5 161.5 0 0 1-7.06 8.56c-.68.78-.87 1.62-2.36 1.63-.34 0-.72.02-.92-.1-.8-.21-1.7-1.34-1.33-2.65.23-.79.71-1.8 1.02-2.55.42-1.01.54-1.93.93-2.95 2.24-5.98 4.12-12.33 6.55-18.23.93-2.27 1.41-4.6 2.35-6.82h-23.95c-.27-.17-.9-.1-1.33-.1-2.13 0-4.58.38-4.91-1.43-.85-1.32 1.12-2.9 1.53-3.46 2.17-2.9 4.7-5.5 6.86-8.35 4.87-6.48 10.39-12.37 15.25-18.84 1.01-1.35 2.37-2.53 3.38-3.87 1.9-2.54 4.15-4.82 6.03-7.34 1.69-2.23 3.35-4.56 5.53-6.3z"/></defs><g><g clip-path="url(#clip-1291)" opacity=".09" transform="translate(-796 -2241)"><use fill="#fff" xlink:href="#dwxaa"/></g><g clip-path="url(#clip-1291)" opacity=".09" transform="translate(-796 -2241)"><use fill="#fff" xlink:href="#dwxab"/></g><g clip-path="url(#clip-1291)" opacity=".09" transform="translate(-796 -2241)"><use fill="#fff" xlink:href="#dwxac"/></g><g transform="translate(-796 -2241)"><use fill="#fff" xlink:href="#dwxad"/></g></g></svg>