<svg 
 xmlns="http://www.w3.org/2000/svg"
 xmlns:xlink="http://www.w3.org/1999/xlink"
 width="48px" height="47px">
<path fill-rule="evenodd"  fill="rgb(255, 255, 255)"
 d="M24.301,0.066 C11.382,0.066 0.871,10.577 0.871,23.497 C0.871,36.417 11.382,46.925 24.301,46.925 C37.220,46.925 47.731,36.417 47.731,23.497 C47.731,10.577 37.220,0.066 24.301,0.066 ZM30.128,24.321 L26.316,24.321 C26.316,30.411 26.316,37.908 26.316,37.908 L20.668,37.908 C20.668,37.908 20.668,30.484 20.668,24.321 L17.983,24.321 L17.983,19.519 L20.668,19.519 L20.668,16.414 C20.668,14.190 21.725,10.714 26.368,10.714 L30.552,10.729 L30.552,15.390 C30.552,15.390 28.008,15.390 27.514,15.390 C27.019,15.390 26.317,15.637 26.317,16.698 L26.317,19.519 L30.621,19.519 L30.128,24.321 Z"/>
</svg>