<svg 
 xmlns="http://www.w3.org/2000/svg"
 xmlns:xlink="http://www.w3.org/1999/xlink"
 width="64px" height="45px">
<path fill-rule="evenodd"  fill="rgb(255, 255, 255)"
 d="M60.606,4.124 C58.350,1.440 54.185,0.348 46.231,0.348 L17.357,0.348 C9.220,0.348 4.985,1.512 2.737,4.366 C0.546,7.150 0.546,11.252 0.546,16.929 L0.546,27.747 C0.546,38.746 3.146,44.331 17.357,44.331 L46.231,44.331 C53.129,44.331 56.951,43.363 59.424,40.997 C61.960,38.569 63.042,34.610 63.042,27.747 L63.042,16.929 C63.042,10.943 62.873,6.816 60.606,4.124 ZM40.669,23.831 L27.557,30.685 C27.264,30.836 26.943,30.914 26.623,30.914 C26.261,30.914 25.899,30.814 25.579,30.624 C24.976,30.258 24.607,29.604 24.607,28.896 L24.607,15.237 C24.607,14.533 24.974,13.878 25.577,13.512 C26.179,13.148 26.928,13.123 27.552,13.448 L40.664,20.256 C41.331,20.601 41.750,21.292 41.751,22.042 C41.752,22.793 41.335,23.484 40.669,23.831 Z"/>
</svg>