<svg xmlns="http://www.w3.org/2000/svg" xmlns:xlink="http://www.w3.org/1999/xlink" width="34" height="34" viewBox="0 0 34 34"><defs><path id="1hmwa" d="M1014.2 491.97l-2.42-1.42-.01-2.82a2.62 2.62 0 0 0-2.6-2.62l-2.8-.02-1.4-2.43a2.6 2.6 0 0 0-3.55-.96l-2.42 1.4-2.42-1.4a2.6 2.6 0 0 0-3.55.96l-1.41 2.43-2.8.02a2.63 2.63 0 0 0-2.59 2.62l-.01 2.82-2.41 1.42a2.65 2.65 0 0 0-.96 3.58l1.39 2.45-1.39 2.44a2.65 2.65 0 0 0 .95 3.59l2.42 1.42.01 2.82a2.62 2.62 0 0 0 2.6 2.62l2.79.02 1.4 2.43a2.6 2.6 0 0 0 3.56.96l2.42-1.4 2.42 1.4a2.6 2.6 0 0 0 3.55-.96l1.4-2.44 2.8-.01a2.62 2.62 0 0 0 2.6-2.62l.01-2.82 2.41-1.42a2.65 2.65 0 0 0 .95-3.59l-1.38-2.44 1.38-2.45a2.65 2.65 0 0 0-.95-3.58z"/><path id="1hmwb" d="M993.4 496.04l4.82 4.04 5.97-7.15a1.1 1.1 0 0 1 1.54-.14l1.68 1.4c.47.4.53 1.09.14 1.55l-8.07 9.66a1.1 1.1 0 0 1-1.54.14l-1.68-1.4a1.13 1.13 0 0 1-.05-.04l-5.63-4.7a1.1 1.1 0 0 1-.14-1.54l1.4-1.68a1.1 1.1 0 0 1 1.55-.14z"/></defs><g><g transform="translate(-982 -481)"><use fill="#287eff" xlink:href="#1hmwa"/></g><g transform="translate(-982 -481)"><use fill="#fff" xlink:href="#1hmwb"/></g></g></svg>