<svg xmlns="http://www.w3.org/2000/svg" xmlns:xlink="http://www.w3.org/1999/xlink" width="343" height="349" viewBox="0 0 343 349"><defs><path id="ikgpa" d="M480.5 1937.5c142.49 0 258 115.5 258 258 0 142.49-115.51 258-258 258s-258-115.51-258-258c0-142.5 115.51-258 258-258z"/><path id="ikgpb" d="M480.5 2066.5c71.24 0 129 57.75 129 129 0 71.24-57.76 129-129 129-71.25 0-129-57.76-129-129 0-71.25 57.75-129 129-129z"/><path id="ikgpc" d="M480.5 2131a64.5 64.5 0 1 1 0 129 64.5 64.5 0 0 1 0-129z"/><path id="ikgpd" d="M521.02 2187.22c0-11.7-9.67-21.19-21.61-21.19-7.8 0-14.6 4.06-18.41 10.13a21.68 21.68 0 0 0-18.41-10.13c-11.94 0-21.62 9.49-21.62 21.19 0 6.36 2.88 12.06 7.42 15.95l30.63 30a2.82 2.82 0 0 0 3.95 0l30.63-30a20.94 20.94 0 0 0 7.42-15.95z"/></defs><g><g clip-path="url(#clip-1283)" opacity=".09" transform="translate(-396 -2105)"><use fill="#fff" xlink:href="#ikgpa"/></g><g clip-path="url(#clip-1283)" opacity=".09" transform="translate(-396 -2105)"><use fill="#fff" xlink:href="#ikgpb"/></g><g clip-path="url(#clip-1283)" opacity=".09" transform="translate(-396 -2105)"><use fill="#fff" xlink:href="#ikgpc"/></g><g transform="translate(-396 -2105)"><use fill="#fff" xlink:href="#ikgpd"/></g></g></svg>