<svg xmlns="http://www.w3.org/2000/svg" xmlns:xlink="http://www.w3.org/1999/xlink" width="1920" height="578" viewBox="0 0 1920 578"><defs><path id="m8c0a" d="M22.35 16980.93c128.78-73.66 241.61-119.83 279.65-81.93 75.42 75.15-183.06 454.81-131 493 33.12 24.3 148.14-126.38 273-108 110.42 16.25 147.6 152.35 252 153 86.5.53 110.6-92.45 200-101 121.69-11.64 205.73 149.83 300 123 74.88-21.32 68-135.72 144-164 116.42-43.32 267.63 169.26 355 127 82.56-39.94 15.9-263.57 116-336 34.57-25.02 82.16-29.4 139.59-17.38"/><clipPath id="m8c0b"><use fill="#fff" xlink:href="#m8c0a"/></clipPath></defs><g><g opacity=".68" transform="translate(-26 -16885)"><use fill="#fff" fill-opacity="0" stroke="#9fcbed" stroke-miterlimit="50" stroke-width="4" clip-path="url(&quot;#m8c0b&quot;)" xlink:href="#m8c0a"/></g></g></svg>