<svg xmlns="http://www.w3.org/2000/svg" xmlns:xlink="http://www.w3.org/1999/xlink" width="1920" height="701" viewBox="0 0 1920 701"><defs><path id="tf9ja" d="M26.17 13751.28A64.35 64.35 0 0 1 47 13761c65.4 46.74 4.7 205.35 75 250 63.73 40.47 161.6-59.45 231-21 90.5 50.14 33.77 283.4 104 311 53.83 21.15 122.58-104.69 219-101 94.29 3.6 125.85 114.27 220 113 74.03-1 122.6-88.14 177-71 58.18 18.33 46.2 128.37 103 150 79.52 30.28 179.05-155.6 300-145 122.46 10.73 154.3 189.19 269 204 65.35 8.44 133.75-37.67 202.19-118.74"/><clipPath id="tf9jb"><use fill="#fff" xlink:href="#tf9ja"/></clipPath></defs><g><g transform="translate(-26 -13751)"><use fill="#fff" fill-opacity="0" stroke="#9fcbed" stroke-miterlimit="50" stroke-width="4" clip-path="url(&quot;#tf9jb&quot;)" xlink:href="#tf9ja"/></g></g></svg>