<svg xmlns="http://www.w3.org/2000/svg" width="1201.496" height="613.47" viewBox="0 0 1201.496 613.47">
  <metadata><?xpacket begin="﻿" id="W5M0MpCehiHzreSzNTczkc9d"?>
<x:xmpmeta xmlns:x="adobe:ns:meta/" x:xmptk="Adobe XMP Core 5.6-c142 79.160924, 2017/07/13-01:06:39        ">
   <rdf:RDF xmlns:rdf="http://www.w3.org/1999/02/22-rdf-syntax-ns#">
      <rdf:Description rdf:about=""/>
   </rdf:RDF>
</x:xmpmeta>
                                                                                                    
                                                                                                    
                                                                                                    
                                                                                                    
                                                                                                    
                                                                                                    
                                                                                                    
                                                                                                    
                                                                                                    
                                                                                                    
                                                                                                    
                                                                                                    
                                                                                                    
                                                                                                    
                                                                                                    
                                                                                                    
                                                                                                    
                                                                                                    
                                                                                                    
                                                                                                    
                           
<?xpacket end="w"?></metadata>
<defs>
    <style>
      .cls-1 {
        fill: #ecf5fa;
      }

      .cls-1, .cls-2 {
        fill-rule: evenodd;
      }

      .cls-2 {
        fill: #e3ebf0;
      }
    </style>
  </defs>
  <path class="cls-1" d="M700.721,7154.97c-54.18,135.41,230.5,489.22,611.2,494.27,314.65,4.17,609.23-230.61,581.91-368.38C1846.17,7040.55,787.747,6937.47,700.721,7154.97Z" transform="translate(-694.094 -7035.84)"/>
  <path id="pat_copy_8" data-name="pat copy 8" class="cls-2" d="M834,7441c-10.1-10.31-3.46-21.24-4-35-5.66-3.37-15.69-3.99-21-8-10.835-8.18-7.845-16.82-29-17-0.227.22-.452,0.43-0.675,0.64-0.721-.9-1.441-1.81-2.153-2.71,0.6-.66,1.2-1.31,1.828-1.93,13.7-.2,22.291,3.43,28,11,2.065,2.74,4.012,7.44,7,9,4.924,2.57,12.285,2.09,17,4,1.62,3.49,4.849,9.31,3,16-0.811,2.94-4.6,6.89-3,12,1.439,4.58,8.91,8.58,7,16-0.069.27-.151,0.5-0.227,0.76-1.312-1.27-2.613-2.55-3.911-3.82C833.908,7441.63,833.966,7441.33,834,7441Zm98,64c-1.714-1-4.3-.2-7-1-6.715-2-18.113-6.83-22-12-8.08-10.75-5.658-52.75,6-57,1.418-.96,3.273-0.98,6-1a11.67,11.67,0,0,0,3,2c0.491,6.7-1.466,12.51-3,19-2.234,9.45,1.477,19.11,3,25,4.3,2.8,6.875,5.56,13,7-0.575-10.3-.948-17.73,9-18,1.021,0.8.274,0.35,2,1a15.469,15.469,0,0,0,3,6v-9l-3-9c-4.682-8.07-15.189-13.78-16-25,3.236-1.9,4.357-2.9,10-3,2.315,2.23,6.1,3.4,8,6,4.737,6.46,18.564,33.32,16,45-2.136,9.73-10,13.11-12,20,4.665,7.76,2.5,20.68,5,30,0.642,2.39,1.332,4.82,2.053,7.27q-2.5-1.59-4.978-3.2A347.761,347.761,0,0,1,941,7476c-1.624-1.35-1.121-.64-2-3h-3c-2.338,10.58.48,17.6,6,23-3.832,9.18-3.154,21.1-.691,33.27-1.586-1.07-3.172-2.13-4.746-3.2A139.047,139.047,0,0,1,934,7505h-2Zm15-11h2v-1c15.126-10.12-2.1-53.85-13-58-1.295-.88-2.467-0.89-5-1-0.4,2.27-.918,1.08,0,3,3.462,8.03,12.055,14,16,22C952.267,7469.69,946.929,7483.75,947,7494Zm-14-2c-5.533-3.5-13.175-2.95-17-8-8.41-11.1-4.047-31.81-1-45a15.649,15.649,0,0,0-5-1c-16.7,26.4-10.105,66.24,27,62C937.205,7495.51,937.661,7493.73,933,7492Zm876-285a6.934,6.934,0,0,0-5,3c-4.67,6.22,1.87,12.49,0,20-0.5,1.99-2.3,3.62-3,6h6c1.02-.8.27-0.35,2-1a137.852,137.852,0,0,1,3-21c2.73-1.71,2.5-2.54,7-3,12.15,11.73,15.12,20.96,15,45,5.21,0.27,7.88,1.88,12,3,7.28,14.3,17.53,27.7,33,34,5.49,2.24,10.97,2.92,16.56,4.19,0.04,1.84.02,3.7-.04,5.58-12.19-3.52-24.95-8.03-31.52-12.77-8.62-6.22-15.39-27.55-26-29-7.77-5.04-19.5-4.31-27-9-5.51-3.44-8.33-11.15-14-14-3.85,3.43-10.89,3.81-13,9-1.71,1.75-2.73,4.65-2,6,3.64,9.42,21.18,18.5,34,22,9.61,2.62,18.79-3.67,27,0,5.71,2.55,7.45,9.14,11,14,5.14,7.04,15.57,13.42,24,17a94.767,94.767,0,0,0,17.01,4.26c-0.14,1.4-.3,2.81-0.49,4.22-12.93-2.02-25.29-7.43-32.52-12.48-7.42-5.18-13.86-21.16-22-23-6.14-3.57-14.87,1.89-23,0-12.64-2.94-36.81-13.78-39-26-5.28-9.82,18.15-16.23,21-23,3.19-5.55-3-13.08,0-20,2.6-6.01,11.09-6.76,14-12,1.97-3.55,1.26-8.6,1.78-12.84q2.355,1.53,4.64,3.08C1816.99,7196.02,1814.53,7204.84,1809,7207Zm6,43q7.5,2.505,15,5v-15c-2.46-3.78-1.06-9.5-3-14-1.67-3.86-5.03-6.51-8-11h-3c-1.36,6.6-2.85,13.87-3,22a23.961,23.961,0,0,0-8,4C1808.73,7243.43,1811.24,7247.74,1815,7250Zm-631-201c5.02,3.27,7.02,9.64,11,14,0.57,11.41-4.07,22.36-8,32-9.91,24.3-18.28,66.97-45,73-11.11,2.51-47.61-11.86-57-15-13.35-4.46-53.14-13.98-57-25-4.4-6.8,4.33-25.98,7-30,13.23-19.94,25.81-43.12,41.47-61.77,1.21-.03,2.42-0.05,3.62-0.08-1.39,2.62-2.59,5.47-4.09,7.85-8.07,12.79-16.38,25.95-25,39-6.11,9.25-17.18,18.15-18,32,1.7,1.74,2.17,5.45,4,7,7.45,6.33,19.62,6.56,30,10,15.59,5.16,32.44,9.54,49,15,7.58,2.5,18.6,8.88,29,5,9.73-3.63,11.86-11.54,16-21,7-16.01,13.66-32.93,21-50,2.65-6.17,6.54-11.28,7-20-10.65-12.01-18.1-11.42-35-17-7.25-2.39-14.27-5.31-21.5-8.06q5.22,0.06,10.47.15c1.68,0.66,3.35,1.3,5.03,1.91C1159.7,7042.24,1174.03,7042.51,1184,7049Zm-43,107c-4.79,3.14-23.87-3.25-29-5-23.64-8.08-65.36-15.71-81-31v7c18.65,11.55,40.74,17.29,64,25,13.96,4.63,28.49,9.78,45,12v-1h1a30.342,30.342,0,0,1,1-7h-1Zm47-79c-3.17,14.72-11.45,28.12-17,41-4.03,9.34-5.81,18.72-11,27-4.41,7.03-14.27,6.34-15,17h2c3.53-3.44,8.9-5.14,12-9,2.2-2.74,2.36-6.84,4-10,6.97-13.42,12.09-27.68,18-43C1183.01,7094.79,1190.55,7082.36,1188,7077Zm1-1h1v-2h-1v2Zm-27-21c8.76-7.34,18.59,3.23,18,14q-3.495,12.495-7,25c-8.74,21.32-14.45,34.29-30,49-30.21.83-57.98-10.18-78-21-8.7-4.7-18.58-7.11-19-20,4.22-5.57,5.29-13.02,9-19,10.69-17.25,24.12-32.91,38.07-47.05q6.435-.075,12.92-0.1c1.29,0.4,2.6.8,4.01,1.15,1.37,2.54,1.92,3.5,2,8-5.31,5-12.69,13.49-14,22,0.8,1.02.35,0.27,1,2,11.3,7.21,33.45,20.26,52,13,1.32-2.85,3.86-5.32,5-8C1158.62,7067.81,1157.2,7058.9,1162,7055Zm-14,33c-18.46.53-34.13-4.59-45-12-3.45-2.35-10.92-5.86-9-13,2.49-9.23,12.58-12.03,14-23h-2c-1.83-1.27-5.26-1.71-8-2-2.16,1.76-5.97,2.06-8,4-10.8,10.33-18.61,25.36-27,38-5.14,7.74-12.55,14.73-13,27,5.12,3.46,9.59,8.7,15,12,14.44,8.81,60.12,23.03,81,18,1.81-5.3,7.18-9.39,10-14,8.83-14.44,19.46-40.72,20-62-2.42-.91-1.59-1.07-4-2-2.38-1.96-5.94-2.17-7-1-4.42,4.02-3.45,13.07-6,19C1156.69,7082.35,1151.88,7084.28,1148,7088Zm4-14a59.879,59.879,0,0,0-9,7c-12.61.38-33.58-4.11-37-13-2.25-3.21.18-7.53-1-10,6.88-8.8,9.92-8.54,18-15,17.39-.46,21.96,2.92,30,11A157.5,157.5,0,0,1,1152,7074Zm-4-11c-1.25,1.62-2.1,2.01-4,3-0.63-1.75-.19-0.97-1-2v-2c3.8-1.62,5.5-1.69,6-7h-1v-1c-2.62,1.78-4.14,4.2-7,3-0.8-1.02-.35-0.27-1-2,2.48-1.4,3.87-2.05,5-5-2.24-.59-2.66-0.75-4-2-1.75.63-.97,0.19-2,1q-3,6.495-6,13h-3c0.37-6.06,2.94-10.27,5-15h-6a20.057,20.057,0,0,0,1,7,12.5,12.5,0,0,0-4,1c-0.07-3.93-.37-6.5-3-8-1.34,1.9-1.28.87-2,4,1.12,1.47,2.09,3.05,1,4-1.07.75-.95,0.6-3,1-0.67-1.67-1.33-3.33-2-5-1,.33-2,0.67-3,1-1.9,3.55-6.72,9.26-5,13,3.28,8.98,24.57,13.35,36,11,2.12-3.49,3.69-4.26,4-10C1149.51,7063.59,1150.62,7064.77,1148,7063Zm-46,189c2.89-3.39,3.05-7.55,5-12,5.09-11.58,13.02-18.02,25-23,4.16-1.73,12.65-6.2,20-4,8.9,2.66,14.21,12.95,21,18,16.3,12.11,29.8,26.76,46,39q3.495,4.005,7,8c12.89,9.76,23.33,22.41,36,32,10.12,7.66,23.28,16.17,24,33v2c-5.18,6.8-7.37,14.78-15,19-20.91,11.58-47.28,3.18-48-21h-4v-2c11.45-9.48,19.89-32.85,46-24-6.83-10.25-23.18-21.05-33-29-19.36-15.66-35.86-34.81-56-50-12.02-9.06-14.04-21-36-21-5.45,3.73-12.9,4.22-18,8-8.82,6.54-9.53,17.98-16,27-6.15,8.58-18.96,16.38-28,22-19.21,11.95-42.73,21.04-64,30-9.47,3.99-22.332,4.9-30,11,8.753,7.31,17.82,18.28,24,28h1c3.35,6.89,8.95,11.96,13,18,8.55,12.75,15.48,25.3,24,38,5.66,8.44,13.37,16.3,19,25h2c5.47-6.48,15.77-9.24,24-13a514.531,514.531,0,0,1,53-21c16.31-5.34,33.65-5.87,47-14,7.42-4.52,16.25-11.79,21-19,3.34-5.07,3.06-12.4,10-14v2c-3.62,3.75-3.99,9.5-7,14-4.18,6.26-12.71,13.83-19,18-8.19,5.44-17.54,6.59-28,10-20.01,6.53-42.13,10.86-61,19-8.57,3.7-18.78,7.99-27,13-5.41,3.3-9.01,8.11-17,9-3.52-10.61-14.82-20.21-21-29-9.42-13.4-16.82-27.29-26-41-3.45-5.14-8.55-9.68-12-15-6.056-9.56-21.449-20.23-25-30,33.02-12.64,66.76-24.69,95-42C1083.9,7264.93,1094.71,7260.55,1102,7252Zm159,68c-19.86-4.83-25.68,10.47-36,18,0.33,1.67.67,3.33,1,5,0.4,8.22,5.37,17.82,12,20,9.86,9.32,31.99-1.89,38-7,2.53-2.15,3.72-6.54,6-9v-4c0.18-9.64-4.24-16.32-10-20C1268.9,7320.49,1265.83,7321.17,1261,7320Zm18,15c0.33,2.67.67,5.33,1,8v1c-11.66,15.2-16.55,22.55-41,16a94.385,94.385,0,0,1-8-17v-2c1.84-2.68,2.08-6.4,4-9,4.39-5.96,21.71-12.91,33-8C1273.08,7326.21,1275.36,7331.33,1279,7335Zm-42,1c-1.52,1.89-1.79,3.59-2,7,0.3,5.09,1.88,6.95,3,11,2,1.67,4,3.33,6,5,12.67,1.16,27.44-2.31,31-13,0.75-1.07.6-.95,1-3-0.04-5.03-1.04-6.42-2-10C1262.72,7325.12,1245.73,7322.49,1237,7336Zm28,7c-0.33-2-.67-4-1-6-3.59-2.1-5.57-3.04-12-3-2.15,2.19-4.58,2.97-6,6-0.75,1.07-.6.95-1,3,0.33,1.67.67,3.33,1,5,14.64,7.12,11.94-2.42,22-5v3c-5.75,4.55-6.81,8.06-18,8-4.38-3.61-7.44-4.3-9-11v-1c1.09-1.35.92-3.4,2-5,1.77-2.62,5.73-3.81,8-6,4.53-.33,6.73-1.39,10,1,4.23,1.28,6.58,3.73,7,9,0.8,1.02.35,0.27,1,2h-4Zm-14,0h1.57c0.47,0.33,1.78.03,4.43,0v2h-1c-1.18.8-1.68,0.77-4,1C1251.67,7345,1251.33,7344,1251,7343Zm2-3a12.5,12.5,0,0,1,4,1v2h-4.43C1252.15,7342.71,1252.4,7341.93,1253,7340Zm-253,206c6.12-.41,8.07.2,14,1,1.83,2.43,5.3,3.58,7,6,1.83,2.61,1.84,4.9,4,7,0.67,7.29,1.81,7.28-1,12,7.11-.03,11.98,1.86,17,4,1.09-9.73,5.92-19.67,9-28q6-22.005,12-44c-15.35-3.18-24.67-11.87-34-21v-4a36.918,36.918,0,0,1,3-3c1.68-1.34,3.14-1.64,6-2,3.85,3.1,11.21,7.68,16,9,14.53,4,25.33-7.34,39-4,2.67,1,5.33,2,8,3,1.34,2.73,2.33,3.34,3,7-4.81,4.79-7.54,9.67-14,13-3.82,1.97-10.74,1.4-13,5-7.96,11.77-7.04,34.55-11,51-2.55,10.62-6.31,21.5-8,32a36.609,36.609,0,0,1,8.38,6.43q-6.3-2.655-12.53-5.43H1053c0.48-8.1,4.07-15.08,6-22q1.995-16.5,4-33c2.65-10.09,6.55-20.43,9-31h-6q-7.005,24.99-14,50c-3.57,9.79-8.14,18.96-8.92,31.57-1.31-.61-2.61-1.22-3.92-1.83-0.07-2.19.09-4.34-.16-4.74-2.38-2.31-11.98-5.31-18.03-4.13q-5.025-2.535-10-5.13c-0.55-7.38-3.6-11.8-11.97-11.74a39.917,39.917,0,0,1-3.87,3.19q-3.5-1.95-6.972-3.93C991.388,7553.76,995.171,7550.59,1000,7546Zm86-48c5.6-2.48,9.95-4.12,12-10-0.21-1.35.4-1.82-3-3-10.52-7.89-27.76,5.56-42,2-7.45-1.86-10.75-7.71-19-9-1.34,1.9-1.28.87-2,4C1043.13,7492.81,1064.12,7507.67,1086,7498Zm-94,61h1c1.947-2.56,4.454-4,9-4,12.08,0.01,9.49,10.41,14,18,3.06-3.09,5.4-3.07,6-9-5.4-7.08-6.16-14.14-18-15-3.64,2.88-8.369,5.6-12,8v2Zm212,50c-59.86,15.27-88.64-65.23-71-118,4.37-13.09,14.05-26.27,25-33,3.68-2.26,8.66-2.46,12-5,28.09-.39,29.11,8.09,44,19,14.03,10.28,21.96,20.59,27,40,3.04,11.7,2.37,27.08,0,38q-0.495,10.005-1,20C1234.7,7590.72,1224.6,7603.74,1204,7609Zm-10-3h4c5.51-3.47,13.58-2.83,19-6,12.9-7.55,20.1-24.46,20-45h-1c-4.15,6.2-12.1,7.23-21,6,0.07,17.74-9.03,37.94-21,44v1Zm8-92c-3.38-8.3-10.63-13.91-15-21-1.9-3.07-1.76-8.51-3-12-2.4-1.51-6.17-5.14-8-4-13.05,8.42-21.3,38.45-15,62,6.11,22.84,17.83,44.39,45,46,0.85-5.71,8.11-20.89,5-28-1.33-1-2.67-2-4-3-1.32-2.38-2.45-6.83-3-9C1201.37,7534.61,1205.68,7523.04,1202,7514Zm-65,40c7.44,27.1,17.75,50.22,50,52,5.25-5.24,12.43-8.03,15-16,0.25-.97.78-0.38,0-1-2.97-2.03-7.4-1.5-11-3-12.57-5.25-23.73-17.5-29-30-5.17-12.25-3.48-41.4-16-46-1.18-.8-1.68-0.77-4-1C1131.95,7520.02,1132.44,7537.4,1137,7554Zm8-78c-5.28,4.4-10.92,24.72-11,35h1c2.55-4.09,5.33-5.87,12-6,3.63,3.01,6.36,3.82,8,9h1c-0.02-18.95,8.36-29.78,17-40-5.77-.67-9.9-1.93-17-2C1152.87,7474.06,1147.81,7473.66,1145,7476Zm33-20c-1.98,1.32-5.04.01-8,1-4.46,1.49-14.42,5.15-17,11a2.9,2.9,0,0,0-1,1h3c10.58-7.26,26.47,7.89,31,8,2.66-1.67,4.98-4.85,8-6,3.81-1.45,9.84.02,13-2C1197.16,7464.07,1191.54,7458.79,1178,7456Zm47,29c-2.98-4.1-8.43-6.43-12-10q-7.995-.495-16-1c-1.38,1.11-2.87,1.49-5,2-1.93,3.83-3.01,5.52-3,12,6.12,6.47,14.07,17.03,17,26,3.1,9.48-.65,20.51,2,31,1,2.67,2,5.33,3,8,13.03,8.78,17.85,3.98,27-5C1238.48,7522.1,1236.58,7500.9,1225,7485Zm-78,40a24.963,24.963,0,0,0,4,5,14.168,14.168,0,0,0-1,4c-2.54,1.37-3.5,1.92-8,2-0.33-1-.67-2-1-3-0.88-1.29-.89-2.47-1-5a17.817,17.817,0,0,0,4-3h3Zm-1,7v-1a2.9,2.9,0,0,0,1-1h-1c-1.02-.8-0.27-0.35-2-1C1144.83,7532.25,1143.51,7530.53,1146,7532Zm2,15h5a17.817,17.817,0,0,0,3,4c-0.63,1.75-.19.97-1,2-1.04,3.08-.97,2.92-4,4-1.22.74-.99,0.14-4,0-1.3-2.42-1.8-2.83-2-7,0.8-1.02.35-.27,1-2C1147.75,7547.37,1146.97,7547.81,1148,7547Zm2,7a2.9,2.9,0,0,0,1-1c0.8-1.02.35-.27,1-2h-3C1149.33,7552,1149.67,7553,1150,7554Zm8,14h5c1.71,2.73,2.54,2.5,3,7-3.09,1.95-3.43,2.89-9,3-0.33-1-.67-2-1-3-1.4-2.24-.55-3.28,0-6C1157.75,7568.37,1156.97,7568.81,1158,7568Zm1,6h3v-2h-3v2Zm18,11c4.11,1.08,4.49,2.64,7,5-0.63,1.75-.19.97-1,2-1.04,3.08-.97,2.92-4,4-1.22.74-.99,0.14-4,0-0.33-.67-0.67-1.33-1-2-1.88-2.57-1.37-2.94-1-6A17.817,17.817,0,0,0,1177,7585Zm-1,7c3.58-.42,2.52.47,4-2h-4v2Zm228,27c-2.04-1.88-3.84-2-8-2-2.21,5.14-.21,12.78-2,20a61.9,61.9,0,0,1-2.77,8.36q-4.335.465-8.67,0.89c4.46-9.3,7.25-20.05,5.44-29.25a15.68,15.68,0,0,1-5-4h-5c-1.6,3.82-.29,9.51-2,15a42.72,42.72,0,0,1-12.82,19.84q-5.94.39-11.89,0.68c9.44-8.4,24.58-24.16,17.71-33.52-2.31-2.27-4.35-2.87-9-3-3.63,7.04-4.59,15.07-9,21-4.32,5.8-14.82,6.3-16,15,0.54,0.37,1,.73,1.42,1.07-1.48.04-2.96,0.07-4.43,0.1a19.75,19.75,0,0,1-.99-7.17c2.93-1.74,7.88-4.3,10-7-6.24-3.04-9.35-7.55-14-12,2.6-6.98,5.53-12.77,15-13,3.67,3.41,9.1,4.8,11,10h1c0.07-6.2,1.73-8.44,4-12,8.68-.07,10.4,2.96,16,5,1.45-3.96,3.6-4.11,9-4,2.77,2.63,5.81,3.69,8,7,3.42-2,4.94-2.99,11-3,5.72,4.98,12.5,5.54,13,16,2.17,3.29,1.2,8.28-.71,13.43-1.24.18-2.49,0.35-3.73,0.52C1413.32,7633.79,1412.21,7621.96,1404,7619Zm-52,4h-1c-2.46-3.72-6.36-5.59-9-9h-4c-3.22,3.29-5.49,3.6-6,10,2.77,1.83,10.94,9.52,13,8a12.2,12.2,0,0,0,6-8h1v-1Zm20-249c2.85-3.87,8.19-5.04,12-8,18.95-.54,29.76,5.19,43,10,11.97,4.35,23.93,6.89,35,11,11.9,4.42,24.69,6.48,26,21,2.01,3.13.26,9.2-1,13-3.99,11.99-9.36,24.88-14,36-7.85,18.82-12.67,42.81-31,51-9.64,4.31-21.66-.28-30-3-24.03-7.83-46.76-12.78-68-22-7.15-3.1-17.77-4.18-21-11-5.99-6.76,1.75-24.83,5-30,9.26-14.74,20.36-29.5,30-44C1363.26,7390.09,1366.4,7381.61,1372,7374Zm110,46h1v-2h-1v2Zm-41,84q4.995-3.495,10-7c11.25-14.36,15.53-35.14,23-53,2.13-5.08,9.63-17.57,7-23-3.86,17.6-14.23,34.53-21,50-2.41,5.52-2.83,10.99-6,16-4.34,6.87-14.27,6.6-15,17h2Zm-116-41v6c0.8,1.02.35,0.27,1,2,23.89,10.8,47.76,18.05,75,27,9.88,3.25,20.65,7.51,33,8v-2c0.88-1.29.89-2.47,1-5-18.25.43-31.92-7.37-46-12-14.96-4.92-29.16-8.38-43-13-5.31-1.77-9.79-1.3-14-4C1329.3,7468.27,1327.75,7464.91,1325,7463Zm2-6c1.11,1.38,1.49,2.87,2,5,7.02,4.39,33.81,17.74,43,15,11.43,5.31,26.68,9.94,39,14,10.26,3.38,25,6.4,34,0,7.13-5.07,9.28-16.43,13-25,6.01-13.85,13.09-28.96,19-43,2.12-5.03,8.04-16.57,4-23-4.91-7.81-17.37-7.56-27-11-21.16-7.56-41.58-18.97-69-19-1.07.75-.95,0.6-3,1-16.16,17-27.15,38.62-40,59C1336.72,7438.37,1328.15,7444.61,1327,7457Zm63-80c6.37-.09,9.75,1.19,14,3a16.832,16.832,0,0,1,2,6c-4.11,5.01-13.32,16.81-14,24,11.36,10.6,32.3,19,52,15a74.166,74.166,0,0,0,10-27c3.61-.9,4.97-1.85,10-2,1.38,1.11,2.87,1.49,5,2,1.56,2.39,2.92,2.92,4,6,3.48,5.66-3.17,20.02-5,25-8.98,24.41-13.78,39.97-31,56-29.78.84-52.36-9.14-73-18-10.45-4.49-23.6-8.64-24-23,4.49-5.78,6.09-13.79,10-20,6.64-10.55,24.69-37.35,34-44C1385.93,7378.62,1388.26,7378.44,1390,7377Zm-34,47c-4.84,7.36-11.37,13.48-12,25,20.74,18.97,54.4,31.6,93,32,2.09-3.12,5.96-5.02,8-8,10.53-15.36,23.72-45.85,25-69-3.86-2.29-5.46-3.87-12-4a2.9,2.9,0,0,1-1,1c-1.32,13.47-6.77,21.58-14,29-23.59.94-42.21-6.32-55-19,0.28-14.52,11.85-15.77,14-28h-2c-2.39-1.77-5.78-1.99-10-2C1376.66,7394.09,1366.57,7407.92,1356,7424Zm84-3c-9.73,9.14-41.7-5.17-42-16,4.08-5.7,5.23-12.15,11-16,3.52-2.35,9.34-1.66,13-4,8.12,0.38,13.78,3.24,20,5,1.26,2.69,2.98,5.97,5,8C1447.46,7408.36,1447.18,7418.26,1440,7421Zm3-23c-0.8-1.02-.35-0.27-1-2h-1c-1.58,2.51-2.86,3.94-6,5v-1a6.165,6.165,0,0,1-2-2,16.789,16.789,0,0,0,6-5c-1-.33-2-0.67-3-1-1.18-.8-1.68-0.77-4-1-0.75,5.61-3.57,8.83-5,14h-2v-1c-1.75-.63-0.97-0.19-2-1q3-6.495,6-13c-2-.33-4-0.67-6-1v8h-4v-7c-2.08.37-1.92,0.24-3,1-0.8,1.18-.77,1.68-1,4a11.55,11.55,0,0,1,2,3c-1.75.63-.97,0.19-2,1-1.75-.63-0.97-0.19-2-1-1.16-1.44-1.74-3.67-3-5v1c-4.69,2.98-7.56,7.76-8,15,9.99,6.25,19.05,9.98,36,10,2.82-4.23,4.88-5.42,5-13h-1c-1.57,1.83-.88,1.4-4,2-0.67-1-1.33-2-2-3C1439.74,7403.23,1442.39,7403.45,1443,7398Zm-14,5c0.8,1.02.35,0.27,1,2h-1v-2Zm-80-234c5.39,9.24,4.06,24.02,1,34-6.56,21.38-15.3,44.43-42,45-35.18,1.2-50.95-13.74-59-43-2.28-8.29-3.53-23.65,0-32,2.93-6.93,11.09-14.07,18-17,3.57-1.51,6.46-.84,9-3-3.98-5.18-7-16.8-8-24h1c4.52,4.6,12.7,5.14,18,9,4.99,3.63,5.54,13.1,12,15v-1h1c0.15-4.06,1.06-7.67,3-10,1.29-.88,2.47-0.89,5-1-0.79,5.78-4.03,7.55-5,14h1v-2a9.954,9.954,0,0,0,3-5h1v-2c0.59-.96.11-1.91,0-5h5a14.168,14.168,0,0,1,1,4,18.722,18.722,0,0,0-3,5h3C1326.13,7142.08,1345.58,7163.14,1349,7169Zm-75-33v1c6.08,8.28,4.3,19.3,13,25,2.07,1.66,4.16,1.91,8,2C1294.2,7148.1,1284.26,7140.6,1274,7136Zm21,32h-4c1.36,1.26,1.77,1.37,4,2v-2Zm13-13v1c-3.69,3.67-6.61,10.23-9,15h2a18.327,18.327,0,0,1,7-3v-1c1.75-.63.97-0.19,2-1a12.5,12.5,0,0,1,4,1v2c-2.96.75-3.83,1.72-6,3-1,.33-2,0.67-3,1-7.36,5.42-14.72-1.48-23-2v-4c2.53-.07,3.72-0.12,5-1-5.7-1.56-6.45-5.52-10-9-8.97,6.53-19.41,6.06-24,17-3.37,8.05-2.32,23.12,0,31,7.67,25.99,22.23,41.69,55,39C1353.93,7242.68,1368.57,7141.69,1308,7155Zm189-5c-3.16,10.92.6,22.09-2,34-3.64,16.67-2.99,38.5-3,57q-0.495,12-1,24c0.91,3.88,5.16,12.03,3,18-0.39,1.06-2.11,2.25-3,3-5.82,4.73-55.1,2.02-58-4v-15c0.22-.55,1.42-0.1,1-2-0.48-2.15-4.96-6.19-6-9q-2.505-13.005-5-26c-6.49-26.42-4.19-53.52-12-78-2.49-7.81-14.09-11.71-10-26,1.42-4.95,5.64-5.53,8-9,2.63-3.86,2.58-9.04,5-13,2.65-4.34,6.63-7.41,10-11q6,1.005,12,2c0.33-2.67.67-5.33,1-8-5.5-1.66-8.37-5.52-12-9,0.33-1,.67-2,1-3,1.75-.63.97-0.19,2-1,21.14-.57,42.54,15.62,55,22,4.7,2.41,12.97-7.55,17,4,5.14,6.61-2.53,11.53-3,20,4.39,1.72,6.01,3.21,9,6C1506.12,7143.63,1499.77,7140.44,1497,7150Zm-60,130c2.42,1.3,2.83,1.8,7,2,6.51,4.27,41.73,2.28,45,1a25.246,25.246,0,0,0,1-8c-0.81-1.19-1.49-4.59-2-6-7.75,2.08-20.56,6.94-33,4q-9-2.505-18-5v12Zm-19-109c4.83,17.87,5.57,40.33,10,59,2.98,12.54.83,28.05,10,34,10.34,6.71,49.26,12.03,49-8,4.01-6.58-.84-20.46,1-29,1.48-6.86-.75-17.89,1-26,3.63-16.87,3.08-37.72,5-54-24.16-.86-61.01-14.08-81,2C1417.01,7154.6,1415.92,7163.3,1418,7171Zm7-74c-4.25,4.59-8.84,9.36-10,17h2c6.66-4.45,52.31-1,62,1C1470.29,7106.99,1440.19,7098.26,1425,7097Zm41,1c-1-.33-2-0.67-3-1-4.68-3.51-16.28-5.51-22-7-0.33,2-.67,4-1,6h2c3.39,2.46,20.84,8.26,23,7C1465.88,7101.71,1465.89,7100.53,1466,7098Zm-36-20c9.84,9.98,20.11,8.22,34,14,6.34,2.64,11.13,7.9,17,11a12.5,12.5,0,0,1,1-4C1463.84,7094.38,1452.42,7078.77,1430,7078Zm52,32h-1c-1.73-3.91-6.5-7.79-11-9-0.33,1.67-.67,3.33-1,5,4.88,1.17,8.26,3.68,13,5v-1Zm16-7a26.3,26.3,0,0,1-4-5h-6c-2.07,3.21-3.54,3.7-4,9a36.918,36.918,0,0,0,3,3c3.17,2.49,5.44,1.49,9,0C1497.11,7107.52,1497.69,7106.77,1498,7103Zm-9,12c1.25,1.62,2.1,2.01,4,3v-3h-2v1C1490.33,7115.67,1489.67,7115.33,1489,7115Zm-67,1c-6.16,3.87-13.39,2.5-16,10-2.73,3.9-.34,11.92,1,15,2.82,1.65,3.42,2.61,8,3,3.44-3.05,7.62-2.59,13-4,7.71-2.02,21.3-5.42,32-3,11.91,2.7,25.67,7.44,39,5,2.09-4.39,3.06-7.68,3-15C1483.25,7116.45,1451.15,7116.19,1422,7116Zm30,79h-3a2.9,2.9,0,0,0-1-1c0.47-3.35.51-2.65,0-6a25.246,25.246,0,0,0-8-1c-7.78,11.46-8.2,17.55-4,33,3.4,1.62,4.78,2.76,10,3,0.96-1.77,1.26-1.68,2-4,0.75-1.07.6-.95,1-3h-9c-0.33-.67-0.67-1.33-1-2,3.43-1.83,8.03-2.12,14-2a10.917,10.917,0,0,0,2,3c0.24-5.42,1.77-7.62,6-9,2.45-1.66,5.25-.62,8,0,2.75,5.29,4.57,9.39,3,17-3.88,2.52-4.93,3.98-12,4-2-1.67-4-3.33-6-5-1-2.03-.08-4.61-1-6-0.37,4.58-1.28,7.58-5,9-1.87,1.83-5.29,2.87-8,1-5.58-1.73-6.47-5.46-10-9-1.27-13.04-1.76-26.22,7-32C1445.23,7177.76,1453.72,7187.01,1452,7195Zm15,28c1.51-2.81,2.04-4.96,2-10-0.8-1.02-.35-0.27-1-2a6.165,6.165,0,0,1-2-2h-5c-1.83,3.83-2.95,5.79-3,12C1460.67,7222.44,1462.22,7222.99,1467,7223Zm20-42c-1.97,10.03-3.92,18.51-4,31h-4c-0.19-12.73,2.57-21.39,4-32A12.5,12.5,0,0,1,1487,7181Zm-5,42c0.8,1.18.77,1.68,1,4-2.08-.37-1.92-0.24-3-1-0.8-1.02-.35-0.27-1-2C1480.73,7223.21,1480.84,7221.37,1482,7223Zm94,353c-1.68,1.34-3.14,1.64-6,2-1.53,6.18-5.47,10.33-8,16h3c1.73-1.73,9.32-5.84,10-5,0.1,0.09,2.89,1.31,2,2h-1c-7.83,8.52-21.6,7.88-30,1-0.8-1.02-.35-0.27-1-2,2.53-.07,3.72-0.12,5-1-4.27-2.11-6.67-5.01-9-9-10.34,3.59-21.12,7.22-25,17a47.074,47.074,0,0,0-2.71,23.92c-0.78.22-1.57,0.45-2.35,0.68-1.43-7.25-2.21-16.05.06-22.6,2.12-6.12,7.79-13.77,13-17,4.35-2.69,12.23-2.78,15-7-3.51-5-6.08-15.4-7-22h1c4.58,4.32,13.05,5.13,18,9,4.98,3.89,4.35,12.7,12,14,0.3-3.58,1.2-8.64,3-11,1.99-1.34,6.51-1.1,10-1a14.168,14.168,0,0,1,1,4c-1.95,1.52-2.22,2.17-3,5h2c6.28-4.07,15.55.92,19,3a55.587,55.587,0,0,1,12.89,10.55c-1.1.48-2.19,0.96-3.29,1.44A38.228,38.228,0,0,0,1576,7576Zm-39-17c2.6,12.53,7.66,20.45,15,28h6a2.9,2.9,0,0,1,1-1C1554.54,7573.04,1551.15,7562.18,1537,7559Zm14,31c1.87,1.51,4.98,2.84,7,4a12.5,12.5,0,0,1,1-4h-8Zm9-11c1.02,0.8.27,0.35,2,1C1560.98,7579.2,1561.73,7579.65,1560,7579Zm8-11a50.963,50.963,0,0,1-4,14h1v-1c2.8-2.95,5.7-8.91,7-13h-4Zm307-325v-2a5.292,5.292,0,0,1-.87-2.73q2.085,2.85,3.99,5.73H1877C1875.98,7243.2,1876.73,7243.65,1875,7243Zm-189-112c9.4,5.05,25.83,20.89,22,38-5.49,24.57-13.54,48.61-36,56-4.55,1.5-14.33,1.49-17,1q-7.5-.495-15-1c-20.69-6.45-30.09-20.28-36-42-1.41-5.18-4.24-18.03-2-26,3.35-11.92,10.38-18.41,21-23,3.41-1.47,5.6-.92,8-3-4.07-5.42-5.4-15.68-8-22,8.13,1.21,18.92,6.4,23,12,3.05,4.19,2.01,8.48,8,10,2.69-7.94,2.31-11.55,14-11a2.9,2.9,0,0,0,1,1c-1.33,2.67-2.67,5.33-4,8h1C1672.19,7124.45,1681.3,7128.48,1686,7131Zm-35,10c-7.69-10.44-5.92-23.73-22-26,1.72,9.05,5.77,23.23,14,26,1.69,1.14,4.9,1.07,8,1v-1Zm2-6h-1v2h1v-2Zm7-12-3,12h1v-2c2.65-2.6,4.33-6.46,6-10h-4Zm2,11q-4.5,7.995-9,16h1c2.58-2.15,11.37-5.59,13-5h1c-0.63,1.75-.19.97-1,2-9.52,9.35-17.68,2.68-30,2v-4c6,0.35,8.21,2.64,13,4v-4c-10.65,3.32-11.98-7.11-20-9-8.56,5.77-17.65,6.1-22,16-3.48,7.91-2.28,23.09,0,31,6.58,22.84,14.27,32.14,38,38,7.22,1.78,16.91,2.7,25,0,20.66-6.89,28.01-29.33,33-52,1.09-4.97-1.1-9.13-2-12C1696.75,7140.26,1682.97,7125.32,1662,7134Zm101,133h-1v-2C1762.8,7266.02,1762.35,7265.27,1763,7267Zm11,42c-4.19,3.08-7.2,8.47-12,11-4.68,2.47-13.36,1.53-16,6-2.8,3.92-4.32,11.51-5,17h-1c-0.36,6-2.7,10.89-4,16l-3,27c-2.46,10.1-5.6,20.2-8,30,18.78,5.82,25.4,31.82,20,56q-0.495,7.995-1,16c-1.56,5.04-6.35,8.28-8,12-0.1.22,0.27,5.62,0,7-12.22,7.68-37.96,9.23-57,5q-19.995.495-40,1c-7.76,0-30.38-4.38-31-4-9.2,6.03-10.46,5.79-23,4-4.32-6.51-10.46-15.6-4-25,3.31-4.81,8.05-1.94,9-10,4.45-7.16,4.68-17.52,8-25,4.66-10.48,13.92-17.91,20-27-4.07-5.99-3.52-14.31-6-22-6.19-19.15-13.09-39.54-16-61v-2c-2.53-3.81-2.93-12.37-3-18-20.17.52-35.07-10.94-39-27-2.88-11.77,5.87-45.7,11-48h8c1.02,0.8.27,0.35,2,1v2c4.95,8.16-8.48,29.58-1,41,2.16,8.33,8.27,10.23,16,13a81.765,81.765,0,0,1,1-16c3.09-2.06,2.93-3.46,8-4,1.79,2.6,3.85,6.39,6,9v-11c-2.86-4.05-3.3-9.92-6-14-4.66-7.05-12.46-11.91-15-21,1.83-1.28,1.71-1.97,4-3,6.81-5.09,11.52,1.75,15,6,6.25,7.63,21.83,33.94,17,51-2.27,8.01-10.58,11.07-12,19,2.98,4.57,3.6,15.88,4,22v2c3.23,4.97,2.17,12.55,4,19,3.11,10.93,7.28,22.78,11,33,1.98,5.42,1.46,14.23,6,17,5.72-5.8,13.9-9.63,22-13v-1c-4.13-2.33-7.46-5.04-9-10,6.17-8.03,8.32-18.56,19-22,5.37-1.73,12.29,2.19,14,1,2.82,2.47,17.13,18.58,13,23-1,2.75-1.44,2.2-3,4,5.68,0.7,16.15,4.19,19,3,5.65-7.72,11.23-34.58,15-45,1.34-3.71.88-7.32,3-10,1.18-.8,1.68-0.77,4-1v1c-3.13,4.53-2.95,11.42-5,17-4.87,13.24-16.59,39.02-14,54,3.45,1.03,4.72,2.37,9,3v-1h1c0.57-9.01,4.81-17.09,7-25q1.995-16.995,4-34c1.25-4.78,3.42-9.13,4-15h1c0.43-7.41,3.44-12.36,5-19h-7v2c-2.71,3.81-4.31,11.8-5,17h-4q2.505-10.005,5-20c-14.01-4.74-37.25-12.58-36-29,11.15-6.57,15.74,3.28,25,6C1737.77,7305.22,1773.9,7283.21,1774,7309Zm-32,135h-1v1c-10.87,10.28-18.95,23.89-31,33-7.67,5.8-18.88,13.02-20,25,2.67,0.92,6.93,1.05,11,1,2.6-21.76,18.86-25.77,33-36,4-2.89,5.58-8.5,9-12A56.454,56.454,0,0,0,1742,7444Zm-1,21c-2.6,6.24-8.38,6.66-14,10-9.76,5.8-20.26,15.22-22,29h7c2.04-4.31,4.51-11.03,8-14,8.4-7.16,20.75-10.78,22-25h-1Zm-2,26c0.45-4.52,2.83-8.8,1-12-6.44,9.53-19.06,11.65-23,24h5l9-3C1734.5,7497.9,1736.17,7493.79,1739,7491Zm-7,15c0.33-1,.67-2,1-3h-1c-14.55,10.96-46.8-1.83-59,6C1694.82,7509.21,1715.24,7510.35,1732,7506Zm-120-1c6.37,4.39,24.29,5,32,4,5.1-.66,12.53,1.23,16-1-19.22.43-36.4-1.9-49-8-0.33,1.67-.67,3.33-1,5h2Zm-24-18c-3.36,4.94-5.97,5.97-6,15,2.25,2.69,2.99,5.01,6,7,7.95,6.56,15.19-2.08,19-6a56.454,56.454,0,0,0-1-12C1600.54,7488.38,1597.02,7486.94,1588,7487Zm-20-214c1.6-6.91,3.68-12.47,4-21h-6c-0.33,1-.67,2-1,3-4.05,4.54-3.18,13.2-5,20-7.66,28.55,8.18,44.39,36,44a15.607,15.607,0,0,0,1-5c-0.8-1.02-.35-0.27-1-2C1581.85,7304.4,1561.57,7300.72,1568,7273Zm42,39c1.83-3.41,4.96-7.16,6-11,4.68-17.27-14.35-52.42-25-54a11.55,11.55,0,0,1-3,2c7.16,11.22,17.29,18.99,21,34,2,8.09-2.07,15.22-3,20,0.33,3.33.67,6.67,1,10h1C1609.02,7312.2,1608.27,7312.65,1610,7312Zm13,89c-6.74-18.54-10.42-37.67-15-58-0.61-13.65-4.77-43.03-10-54h-2c-2.01,3.77-2.12,9.57-2,16,2.54,2.28,8.82,6.91,7,13-0.44,1.47-3.55,2.89-4,4-2.28,5.62,2.09,16.24,3,21,2.75,28.38,15.4,57.28,22,84a14.168,14.168,0,0,0,4,1C1630.92,7419.38,1626.14,7409.63,1623,7401Zm28-9h1c4.54,6.89,13.23,8.23,25,8q-1.5-7.005-3-14c-3.75-2.51-4.07-3.97-11-4a131.679,131.679,0,0,1-12,9v1Zm20,38c-2.08-.37-1.92-0.24-3-1-1.74-2.85-1.14-8.4-3-11-4.56,3.49-17.6,11.77-10,23,3.5,14.25,19,13.42,32,10,7.45-10.93,8.65-12.94,5-28-4.31-2.77-7.35-4.84-13-7v2c1.54,2.31,1.12,8.11,1,12h-4c0.11-9.54-.97-17.71-2-26h-6v1C1671.29,7410.13,1671.04,7422.61,1671,7430Zm12-52c-1.9-2.6-5.69-3.78-8-6h-9c-4.33,4.03-8.69,5.8-12,11h1c6.82-8.8,20.27-4.11,24,4,1.87,4.06-.41,7.58,3,10,2.82-3.49,5.35-2.86,6-9C1685.73,7385.11,1685.2,7381.01,1683,7378Zm38,45c-5.58-3.51-11.62-2.17-14-9-1.84-2.67-.66-7.11,0-10-7.15-1.8-14.1-3.92-24-4-2.14,2.97-4.02,2.54-5,7,0.96,1.42.98,3.27,1,6,3.81,0.01,5.98.35,8,2a13.214,13.214,0,0,1,9,9c9.17,11.1-2.44,30.35-13,32-4.46,3.38-12.64,1.67-17,0-13.86-5.3-18.48-15.57-14-33,2.3-1.44,12.97-8.95,14-11-1.14-1.69-1.07-4.9-1-8a18.263,18.263,0,0,0-6-1c-7.18,5.71-19.09,7.11-25,14-4.41,5.14.23,11.15-7,14-2.46,1.5-6.49.3-8,1-11.57,7.75-24.17,32.34-25,51,5.72,0.14,7.67,1.8,12,3,1.6,2.67,4.98,9.69,8,11,12.34,9.6,48.83,7.04,71,7,5.93-27.72,52.05-43.3,55-68-5.37-5.75-7.49-13.28-16-16C1722.82,7422.07,1723.32,7421.88,1721,7423Zm42-122c-8.49-5.21-30.02,7.41-44,3-6.8-2.15-10.17-8.19-19-9-3.21,7.6,5.42,11.29,12,15,13.39,7.55,28.03,14.34,46,6,5.52-2.56,10.03-4.05,12-10h1v-1h-1C1768.6,7301.8,1767.37,7301.31,1763,7301Zm-34,14v1c-1.75-.63-0.97-0.19-2-1h2Zm113,69c7.64-.18,15.26,1.76,22.43,4.52-0.77,1.2-1.55,2.39-2.35,3.59A49.375,49.375,0,0,0,1844,7388a35.331,35.331,0,0,0,15.09,8.53q-1.335,1.92-2.7,3.84c-0.46-.12-0.94-0.25-1.39-0.37-0.17.99-.33,1.99-0.5,2.98q-2.2,3.045-4.53,6.09c-3.88-.84-7.6-1.54-10.97-2.07a70.409,70.409,0,0,0-11,17h3c0.84-.56,3.87-1.02,8.09-1.37-0.94,1.13-1.9,2.25-2.86,3.37H1836c-5.51,3.5-11.32,2.75-15,8-2.16,2.68-2.1,6.58-1.67,10.52-1.24,1.28-2.49,2.57-3.76,3.85-1.2-3.78-1.76-8.37-.57-12.37,1.41-4.73,5.67-5.68,8-9,2.67-3.81,2.57-9.07,5-13,2.59-4.19,6.69-7.49,10-11q6,1.005,12,2c0.33-2.67.67-5.33,1-8C1844.36,7395.34,1838.51,7390.54,1842,7384Zm10-143c4.25,2.78,7.66,7.32,12,10l23.67,10.41q1.65,3.81,2.97,7.65A38.949,38.949,0,0,0,1882,7263c-11.34-5.93-32.5-9.85-34-25-3.82-5.87.7-12.26-1-19-1-3.96-7.93-10.33-7.28-15.78q3.735,3.015,7.24,6.07C1851.29,7217.73,1850.73,7230.09,1852,7241Zm-912,45c-4.318,3.51-54.368,3.28-58-4v-15c0.044-.16-7.6-22.27-9-28q-1-10.995-2-22c-4.554-19.63-4.836-40.74-10-60-2.759-10.29-11.609-14.19-12-26-0.295-8.91,6.321-9.64,9-14,3.025-4.92,3.033-10.26,6-15,2.223-3.55,6.174-6,9-9q6,1.005,12,2c0.333-2.67.667-5.33,1-8-5.5-1.66-8.371-5.52-12-9q0.5-1.5,1-3c1.754-.63.971-0.19,2-1,19.127-.3,33.526,10.01,47,17,2.04,1.06,5.818,4.56,8,5,1.972,0.4,3.889-1.74,5-2,4.567-1.07,6.941,1.21,10,2a18,18,0,0,0,3,4c0.258,8.93-3.792,10.19-4,20,5.3,2.37,11.411,5.31,9,15-2.05,8.24-7.913,11.02-10,20q-2.5,46.5-5,93C937.15,7261.11,948.118,7279.24,940,7286Zm-54-5h2c7.506,5.05,38.879,3.49,49,3,1.372-2.54,1.917-3.5,2-8-1.088-1.63-1.593-5.86-2-8h-1c-9.371,11.86-38.766,1.91-50,0C885.906,7273.83,885.316,7276.88,886,7281Zm-12-184a66.215,66.215,0,0,0-11,17h3c6.377-4.38,52.482-.96,62,1C919.556,7107.24,888.692,7098.22,874,7097Zm41,1c-7.108-3.09-17.317-5.94-25-8q-1,3-2,6c9.571,1.06,17.509,5.65,26,8v-2C914.8,7100.82,914.773,7100.32,915,7098Zm15,2c-0.281-.64.308-0.46-1-1-5.349-4.92-37.115-20.88-50-21,10.762,10.76,19.551,7.98,34,14,6,2.5,10,8.52,17,10v-2Zm1,10c-4.354-2.91-6.422-7.17-12-9-0.333,1.67-.667,3.33-1,5,4.882,1.17,8.261,3.68,13,5v-1Zm14-10a16.576,16.576,0,0,0-8-2c-2.23,3.33-3.688,3.19-4,9a36.288,36.288,0,0,0,3,3c1.906,1.48,3.319,1.85,5,1a12.527,12.527,0,0,0,4-1C946.743,7105.73,946.753,7104.27,945,7100Zm-7,15c1.254,1.62,2.1,2.01,4,3v-3h-2v1C939.333,7115.67,938.667,7115.33,938,7115Zm10,27c1.707-5.3,3.388-9.15,2-16-19.811-8.83-50.067-9.81-79-10-8.923,5.31-13.808,2.48-17,14-0.355,1.28-.512,5.83,1,8,1.179,3.28,3.795,7.05,9,6,11.323-2.28,26.872-10.68,44-7C920.224,7139.62,934.615,7144.69,948,7142Zm-5,5c-8.761-.04-15.275-2.3-22-4-9.6-2.42-19.507-1.87-31-2-2.6,1.61-24.324,6.13-28,7v2c4.925,6.8,3.656,17.59,6,27,6,24.07,4.659,69.51,18,86,8,3.52,44.524,12.39,50,1v-14c3.876-6.37-.788-19.71,1-28C942.073,7198.48,938.577,7169.47,943,7147Zm-15,65c-0.236-12.81,1.793-21.86,4-32h3v2c0.765,1.76-2.863,21.86-3,30h-4Zm-23,11c-5.8-6.16,1.306-14.12,4-18h7c3.528,5.19,6.047,6.39,6,16-0.8,1.02-.355.27-1,2C916.939,7225.89,908.434,7230.21,905,7223Zm10-14h-5c-2.105,3.59-3.044,5.57-3,12,2.542,1.37,3.5,1.92,8,2,1.021-.8.274-0.35,2-1v-2C919.83,7215.94,916.6,7211.61,915,7209Zm-20,17c-3.788,2.45-8.371-.92-12-2-5.09-14.42-11.76-41.36,13-41,3.286,4.1,5.1,3.71,5,12-2.076-.37-1.924-0.24-3-1-3.059-5.01-.3-7.13-9-7-1.021.8-.274,0.35-2,1-5.686,9.59-5.809,19.22-3,31,3.347,1.98,4.747,3.55,10,4,1.021-.8.274-0.35,2-1q0.5-1.5,1-3c0.752-1.07.6-.95,1-3h-9q-0.5-1.5-1-3c3.127-1.08,8.414-1.06,13-1a21.474,21.474,0,0,1,1,7C899.459,7222.1,899.354,7224.49,895,7226Zm34-3h3v4c-2.076-.37-1.924-0.24-3-1-0.8-1.02-.355-0.27-1-2A2.826,2.826,0,0,0,929,7223Zm-185,60c6.871,1.48,17.426,1.39,24-1,23.461-8.54,33.069-32.96,39-59,5.2-22.85-16.548-44.17-31-48-6.642-1.76-13.262,1.86-18,3q-5.5,9.495-11,19h4c2.3-2.26,9.964-5.96,12-5,2.467,1.29.681-.43,2,2h-1c-12.438,12.2-21.763,3.44-36,2v-4c6.238,0.66,9.464,3.05,15,4v-4c-14.885,2.41-13.33-9.45-24-11-2.606,1.94-5.6,1.47-9,3-5.716,2.57-12.057,8.4-15.774,14.49-0.1-2.23-.128-4.42-0.117-6.59A48.645,48.645,0,0,1,712,7179c3.587-1.49,6.468-.83,9-3-4.424-5.79-7.876-19.05-9-27h2c4.419,5.42,15.469,6.68,21,11,5.328,4.16,4.972,14.64,13,16v-1h1q1.5-6.495,3-13h13c-0.483,5.42-2.682,6.41-4,11h2c7.246-5.05,17.857.11,23,3,11.437,6.44,30.018,24.41,25,46-7.187,30.92-16.89,57.02-47,65-5.968,1.58-14.607,1.22-20,0q-6-.495-12-1a69.173,69.173,0,0,1-17.01-7.94c-1.07-2.44-2.1-4.86-3.086-7.28C719.274,7276.4,729.311,7279.84,744,7283Zm-26-127c2.676,13.62,7.9,33.23,25,33v-1h1C738.69,7172.82,734.778,7159.66,718,7156Zm29,24h-1v2h1v-2Zm8-14q-2,7.5-4,15h1v-2c3.383-2.73,6.026-9.02,8-13h-5Z" transform="translate(-694.094 -7035.84)"/>
</svg>
